<svg xmlns="http://www.w3.org/2000/svg" width="63" height="16" viewBox="0 0 63 16">
    <g fill="none" fill-rule="evenodd">
        <path fill="#FFF" fill-opacity=".01" d="M0 0h63v16H0z"/>
        <g transform="translate(0 1.143)">
            <ellipse cx="6.811" cy="6.857" fill="#00AED6" fill-rule="nonzero" rx="6.811" ry="6.857"/>
            <path fill="#FFF" d="M10.778 6.644a1.587 1.587 0 0 0-1.652-1.5H4.824a.285.285 0 0 1-.284-.286c0-.158.127-.286.284-.286h4.359a1.362 1.362 0 0 0-.993-1.26 10.97 10.97 0 0 0-3.84 0 1.82 1.82 0 0 0-1.362 1.526 13.711 13.711 0 0 0 0 4.06 1.92 1.92 0 0 0 1.552 1.526 19.13 19.13 0 0 0 4.748 0 1.669 1.669 0 0 0 1.317-1.44c.14-.772.199-1.556.173-2.34zm-1.413.96v.254a.285.285 0 0 1-.284.286.285.285 0 0 1-.284-.286v-.254a.427.427 0 0 1 .284-.746.427.427 0 0 1 .284.746z"/>
        </g>
        <g fill="#000" fill-rule="nonzero">
            <path d="M18.937 11.414a2.921 2.921 0 0 0 2.545 1.252c1.187 0 2.059-.763 2.059-1.8v-.547h-.029c-.65.64-1.537.974-2.444.922a3.955 3.955 0 0 1-3.513-1.94 4.012 4.012 0 0 1-.037-4.033 3.956 3.956 0 0 1 3.478-2.002 3.39 3.39 0 0 1 2.516.892h.029V3.41h2.03v7.428c0 2.159-1.7 3.656-4.089 3.656a4.87 4.87 0 0 1-4.06-1.814l1.515-1.266zm4.519-4.622c0-.863-.973-1.655-2.059-1.655-1.373 0-2.288.835-2.288 2.087-.04.594.18 1.175.605 1.588a1.995 1.995 0 0 0 1.597.557c1.187 0 2.145-.748 2.145-1.684v-.893zM30.916 3.194c2.474 0 4.276 1.77 4.276 4.03 0 2.26-1.802 4.031-4.276 4.031a4.005 4.005 0 0 1-3.692-1.935 4.063 4.063 0 0 1 0-4.191 4.005 4.005 0 0 1 3.692-1.935zm0 1.87a2.152 2.152 0 0 0-2.13 2.17 2.152 2.152 0 0 0 2.15 2.15 2.152 2.152 0 0 0 2.14-2.16 2.075 2.075 0 0 0-.605-1.562 2.045 2.045 0 0 0-1.555-.597zM36.29 3.41h2.03v.676h.03a3.359 3.359 0 0 1 2.444-.892c2.18.04 3.928 1.828 3.932 4.023.004 2.196-1.738 3.99-3.918 4.038-.86.02-1.7-.265-2.373-.806h-.029v3.829H36.29V3.41zm4.176 1.67c-1.116 0-2.06.791-2.06 1.655v.964c0 .922.916 1.684 2.073 1.684a2.145 2.145 0 0 0 2.131-2.158 2.145 2.145 0 0 0-2.144-2.146zM48.803 6.49c1.387-.187 1.802-.388 1.802-.777 0-.504-.53-.806-1.344-.806a1.79 1.79 0 0 0-1.888 1.367l-2.002-.417c.286-1.555 1.874-2.663 3.832-2.663 2.216 0 3.59 1.137 3.59 2.993v4.852H50.89v-.835h-.03a3.117 3.117 0 0 1-2.559 1.051c-1.673 0-2.83-.921-2.83-2.275 0-1.425.943-2.159 3.331-2.49zm1.973.806h-.028c-.187.274-.587.432-1.616.62-1.244.23-1.687.474-1.687.92 0 .461.372.663 1.172.663 1.216 0 2.16-.562 2.16-1.296v-.907zM56.82 10.622L53.317 3.41h2.331l2.302 4.98h.028l2.274-4.98h2.345L57.35 14.278h-2.331z"/>
        </g>
    </g>
</svg>