<?xml version="1.0" encoding="utf-8"?>
<!-- Generator: Adobe Illustrator 27.5.0, SVG Export Plug-In . SVG Version: 6.00 Build 0)  -->
<svg version="1.1" xmlns="http://www.w3.org/2000/svg" xmlns:xlink="http://www.w3.org/1999/xlink" x="0px" y="0px"
	 viewBox="0 0 750 500" style="enable-background:new 0 0 750 500;" xml:space="preserve">
<g id="BACKGROUND">
</g>
<g id="OBJECTS">
	<g>
		<radialGradient id="SVGID_1_" cx="375" cy="250" r="561.3415" gradientUnits="userSpaceOnUse">
			<stop  offset="0" style="stop-color:#FB8F37"/>
			<stop  offset="0.3946" style="stop-color:#FCB23E"/>
			<stop  offset="0.6572" style="stop-color:#FDC442"/>
		</radialGradient>
		<rect style="fill:url(#SVGID_1_);" width="750" height="500"/>
		
			<radialGradient id="SVGID_00000062155754554506343210000006012208618075677584_" cx="308.7682" cy="-136.363" r="784.0508" gradientUnits="userSpaceOnUse">
			<stop  offset="0.0216" style="stop-color:#FDC442"/>
			<stop  offset="0.1841" style="stop-color:#FCAD3D"/>
			<stop  offset="0.3854" style="stop-color:#FB9739"/>
			<stop  offset="0.5145" style="stop-color:#FB8F37"/>
			<stop  offset="0.6196" style="stop-color:#FB8535"/>
			<stop  offset="0.8542" style="stop-color:#FC7330"/>
		</radialGradient>
		<rect style="fill:url(#SVGID_00000062155754554506343210000006012208618075677584_);" width="750" height="500"/>
		<g>
			<defs>
				<rect id="SVGID_00000016790518097485238480000000227006415311307938_" width="750" height="500"/>
			</defs>
			<clipPath id="SVGID_00000037687649379473254320000017081339173650415753_">
				<use xlink:href="#SVGID_00000016790518097485238480000000227006415311307938_"  style="overflow:visible;"/>
			</clipPath>
			<g style="clip-path:url(#SVGID_00000037687649379473254320000017081339173650415753_);">
				
					<radialGradient id="SVGID_00000162333683257120009200000017037327832979229082_" cx="797.5953" cy="141.4676" r="1360.5408" gradientUnits="userSpaceOnUse">
					<stop  offset="0" style="stop-color:#FB8F37"/>
					<stop  offset="0.3946" style="stop-color:#FCB23E"/>
					<stop  offset="0.6572" style="stop-color:#FDC442"/>
				</radialGradient>
				<path style="fill:url(#SVGID_00000162333683257120009200000017037327832979229082_);" d="M391.42-102.564
					c4.937,63.018,66.347,109.917,74.038,172.659c5.644,46.037-18.874,93.444-6.13,138.04c7.214,25.244,25.855,46.074,47.756,60.553
					c21.902,14.479,47.021,23.264,72.136,30.915c49.318,15.025,99.796,26.244,150.836,33.523
					c56.912,8.117,117.712,10.729,169.048-15.144c27.727-13.974,51.08-35.613,70.159-60.109
					c19.085-24.504,34.261-52.207,43.26-81.935c29.093-96.106-15.835-209.402-102.885-259.452
					c-60.295-34.666-139.307-43.615-180.328-99.78c-31.111-42.597-34.153-105.851-77.776-135.507
					c-50.52-34.344-112.028-12.442-150.327,26.231C453.515-244.409,385.614-176.673,391.42-102.564z"/>
				
					<radialGradient id="SVGID_00000006678409385609665420000000364943944646090169_" cx="759.3786" cy="495.0309" r="767.9275" gradientUnits="userSpaceOnUse">
					<stop  offset="0" style="stop-color:#FB8F37"/>
					<stop  offset="0.3946" style="stop-color:#FCB23E"/>
					<stop  offset="0.6572" style="stop-color:#FDC442"/>
				</radialGradient>
				<path style="fill:url(#SVGID_00000006678409385609665420000000364943944646090169_);" d="M621.721,59.009
					c-12.768,6.904-24.424,15.834-34.202,26.554c-20.651,22.639-20.712,54.569-11.254,83.421
					c15.266,46.572,54.966,101.474,24.297,150.791c-16.142,25.957-48.38,38.041-78.936,38.876
					c-30.556,0.834-60.47-7.672-90.344-14.143c-29.874-6.471-61.4-10.889-90.668-2.073c-23.966,7.219-45.123,23.387-58.383,44.615
					c-13.443,21.521-18.627,47.201-30.482,69.635c-12.313,23.301-31.893,42.695-55.31,54.786
					c-12.861,6.641-26.862,11.154-38.901,19.19c-12.039,8.036-22.265,20.867-21.951,35.338c0.389,17.907,16.166,31.448,31.725,40.32
					c56.755,32.362,125.759,35.148,190.686,27.878c64.927-7.27,128.796-23.717,194.055-26.829
					c50.605-2.413,101.68,3.217,151.793-4.223c50.114-7.44,101.516-31.109,125.24-75.874c12.574-23.728,16.252-51.693,12.288-78.252
					c-5.018-33.617-21.575-64.401-29.636-97.421c-6.128-25.102-7.381-52.32-3.929-77.942c3.146-23.352,16.531-43.073,23.998-65.041
					c14.474-42.584,1.833-93.103-30.989-123.854c-9.363-8.772-20.122-15.971-31.453-21.989
					c-32.202-17.101-69.909-24.657-105.817-18.325C648.987,47.013,634.773,51.952,621.721,59.009z"/>
				
					<radialGradient id="SVGID_00000002358358183395293250000015731472160916711607_" cx="195.4411" cy="-72.9535" r="446.2925" gradientUnits="userSpaceOnUse">
					<stop  offset="0.0216" style="stop-color:#FDC442"/>
					<stop  offset="0.1841" style="stop-color:#FCAD3D"/>
					<stop  offset="0.3854" style="stop-color:#FB9739"/>
					<stop  offset="0.5145" style="stop-color:#FB8F37"/>
					<stop  offset="0.6196" style="stop-color:#FB8535"/>
					<stop  offset="0.8542" style="stop-color:#FC7330"/>
				</radialGradient>
				<path style="fill:url(#SVGID_00000002358358183395293250000015731472160916711607_);" d="M58.742,414.999
					c58.481,9.913,120.565-35.312,129.063-94.016c7.083-48.932-18.17-101.521,1.621-146.828
					c18.354-42.016,68.979-60.16,114.812-61.388c72.46-1.941,158.191,26.883,217.958-30.673
					c22.151-21.331,31.599-53.813,28.722-84.43c-4.994-53.135-33.107-83.514-79.167-104.625
					c-101.03-46.305-220.087-74.738-331.702-60.836C50.329-156.622-38.466-112.171-86.811-35.768
					c-53.466,84.496-50.131,194.482-19.882,289.789C-85.385,321.159-13.768,402.708,58.742,414.999z"/>
				
					<radialGradient id="SVGID_00000117636235753512997130000017876710212640188050_" cx="350.591" cy="124.0199" r="725.2737" gradientUnits="userSpaceOnUse">
					<stop  offset="0.0216" style="stop-color:#FDC442"/>
					<stop  offset="0.1841" style="stop-color:#FCAD3D"/>
					<stop  offset="0.3854" style="stop-color:#FB9739"/>
					<stop  offset="0.5145" style="stop-color:#FB8F37"/>
					<stop  offset="0.6196" style="stop-color:#FB8535"/>
					<stop  offset="0.8542" style="stop-color:#FC7330"/>
				</radialGradient>
				<path style="fill:url(#SVGID_00000117636235753512997130000017876710212640188050_);" d="M538.673,873.654
					c51.062-53.927,46.891-134.342-4.502-185.324c-26.038-25.83-57.671-46.236-79.757-75.516
					c-75.429-100-1.398-229.278-57.091-333.942c-22.122-41.573-71.955-72.139-116.607-57.176
					c-55.849,18.716-76.184,94.668-131.982,113.537c-38.662,13.074-80.641-6.259-114.078-29.66
					c-22.718-15.9-44.098-34.002-68.798-46.605c-24.7-12.602-53.973-19.316-80.319-10.667c-25.372,8.33-44.738,30.035-55.534,54.46
					c-10.796,24.425-14,51.493-15.33,78.164c-5.07,101.644,16.516,206.366,72.517,291.343
					C-40.7,781.687,80.924,848.958,204.904,891.392c55.257,18.913,112.457,33.842,170.819,36.031
					C434.666,929.634,498.118,916.484,538.673,873.654z"/>
				
					<radialGradient id="SVGID_00000059282950870523478200000013727587956773139096_" cx="-2.8814" cy="244.0925" r="561.3516" gradientUnits="userSpaceOnUse">
					<stop  offset="0.0216" style="stop-color:#FDC442"/>
					<stop  offset="0.1841" style="stop-color:#FCAD3D"/>
					<stop  offset="0.3854" style="stop-color:#FB9739"/>
					<stop  offset="0.5145" style="stop-color:#FB8F37"/>
					<stop  offset="0.6196" style="stop-color:#FB8535"/>
					<stop  offset="0.8542" style="stop-color:#FC7330"/>
				</radialGradient>
				<path style="fill:url(#SVGID_00000059282950870523478200000013727587956773139096_);" d="M-50.547,166.632
					c38.635,3.652,77.51-2.354,116.316-1.987c20.493,0.194,42.821,2.996,57.233,17.565c17.623,17.815,16.927,47.43,7.012,70.444
					s-27.206,41.927-40.727,63.025s-23.501,46.966-16.32,70.974c6.683,22.341,26.482,37.856,39.419,57.257
					c13.564,20.341,19.352,47.233,9.638,69.669c-6.887,15.907-20.857,28.052-36.613,35.279
					c-15.756,7.227-33.239,9.923-50.554,10.721c-44.486,2.052-89.477-8.173-128.706-29.251c-6.7-3.6-13.366-7.618-18.285-13.419
					c-8.984-10.594-10.82-25.508-10.189-39.384c1.999-43.962,24.62-85.71,22.363-129.66c-2.03-39.532-24.472-75.885-53.849-102.416
					c-16.956-15.313-36.461-28.1-50.601-46.046c-27.814-35.299-18.264-90.745,35.521-86.118
					c23.152,1.992,32.501,21.041,50.727,32.282C-97.918,158.055-74.074,164.408-50.547,166.632z"/>
				<g style="opacity:0.31;">
					<path style="fill:none;stroke:#FFFFFF;stroke-miterlimit:10;" d="M-102.605,323.995c32.541,6.948,67.992,0.172,95.06-19.181
						c27.068-19.352,45.079-51.201,46.647-84.439c1.23-26.072-7.133-51.783-6.948-77.883c0.073-10.221,1.634-20.879,7.525-29.231
						c6.841-9.7,18.72-14.915,30.526-16.146c11.805-1.231,23.679,1.059,35.234,3.775c36.489,8.577,72.025,21.538,109.139,26.786
						c37.114,5.248,77.314,1.903,108.042-19.563c42.743-29.858,54.63-81.589,67.979-128.393
						c14.799-51.887,32.389-104.16,69.524-144.717c33.79-36.904,80.317-61.919,129.736-69.755"/>
					<path style="fill:none;stroke:#FFFFFF;stroke-miterlimit:10;" d="M-106.29,326.317c26.96,6.391,56.271,3.152,81.132-9.175
						c5.364-2.66,10.519-5.742,15.4-9.234c17.745-12.696,31.591-30.777,39.401-51.089c4.296-11.186,6.757-22.991,7.154-34.953
						c0.88-26.452-7.832-52.512-7.937-78.994c-0.042-10.374,1.373-21.195,7.108-29.789c6.551-9.817,18.07-15.331,29.582-16.968
						c11.475-1.632,23.093,0.21,34.49,2.464c22.476,4.444,44.911,10.873,67.514,16.417c13.734,3.369,27.546,6.383,41.57,8.38
						c16.283,2.318,33.128,3.104,49.53,1.524c20.97-2.023,41.22-7.914,58.633-19.279c14.106-9.23,25.06-20.719,33.944-33.568
						c18.209-26.373,27.75-58.494,37.825-88.785c8.132-24.426,16.838-49.132,27.901-72.867
						c9.416-20.218,20.509-39.701,34.724-57.242c3.215-3.965,6.591-7.822,10.138-11.565c34.268-36.161,81.34-59.516,130.577-66.658"
						/>
					<path style="fill:none;stroke:#FFFFFF;stroke-miterlimit:10;" d="M-109.975,328.639c27.154,7.067,57.043,4.159,82.347-8.279
						c5.46-2.684,10.701-5.809,15.658-9.358c18.023-12.904,32.019-31.372,39.699-52.085c4.229-11.428,6.527-23.425,6.765-35.562
						c0.529-26.831-8.531-53.242-8.926-80.105c-0.156-10.528,1.113-21.508,6.69-30.346c6.265-9.929,17.418-15.745,28.639-17.791
						c11.143-2.031,22.508-0.639,33.745,1.153c22.258,3.549,44.794,9.379,67.433,14.652c13.754,3.204,27.577,6.148,41.598,8.157
						c16.284,2.334,33.097,3.256,49.49,1.908c20.946-1.73,41.215-7.173,58.793-17.854c14.209-8.679,25.426-19.527,34.677-31.691
						c18.939-24.968,29.706-55.512,40.881-84.623c9.027-23.476,18.534-47.42,30.128-70.744c9.855-19.859,21.157-39.208,35.58-56.511
						c3.267-3.914,6.695-7.708,10.295-11.375c34.745-35.418,82.362-57.113,131.417-63.561"/>
					<path style="fill:none;stroke:#FFFFFF;stroke-miterlimit:10;" d="M-113.66,330.961c27.349,7.742,57.816,5.167,83.561-7.383
						c5.555-2.708,10.883-5.877,15.915-9.482c18.3-13.112,32.446-31.968,39.997-53.081c4.162-11.67,6.296-23.859,6.376-36.169
						c0.179-27.211-9.23-53.972-9.915-81.216c-0.27-10.681,0.856-21.816,6.273-30.903c5.983-10.037,16.764-16.157,27.696-18.613
						c10.809-2.428,21.926-1.49,33.001-0.158c22.045,2.652,44.678,7.884,67.351,12.886c13.774,3.039,27.608,5.912,41.626,7.934
						c16.285,2.349,33.066,3.409,49.449,2.291c20.922-1.437,41.211-6.432,58.954-16.429c14.311-8.128,25.792-18.335,35.411-29.813
						c19.669-23.563,31.662-52.53,43.938-80.461c9.922-22.527,20.229-45.708,32.354-68.622c10.294-19.5,21.806-38.715,36.436-55.781
						c3.318-3.864,6.799-7.593,10.451-11.184c35.222-34.676,83.384-54.711,132.257-60.464"/>
					<path style="fill:none;stroke:#FFFFFF;stroke-miterlimit:10;" d="M-117.346,333.283c27.543,8.418,58.588,6.174,84.776-6.487
						c5.65-2.732,11.065-5.944,16.173-9.607c18.577-13.319,32.874-32.564,40.296-54.077c4.095-11.913,6.065-24.294,5.986-36.777
						c-0.171-27.59-9.929-54.702-10.904-82.327c-0.385-10.834,0.601-22.122,5.855-31.46c5.705-10.14,16.109-16.567,26.752-19.435
						c10.475-2.823,21.345-2.344,32.257-1.469c21.836,1.751,44.562,6.39,67.269,11.12c13.795,2.874,27.639,5.676,41.653,7.711
						c16.285,2.365,33.035,3.561,49.409,2.675c20.898-1.144,41.226-5.652,59.114-15.005c14.43-7.545,26.158-17.142,36.145-27.936
						C357.835,48.05,371.054,20.66,384.43-6.091c10.817-21.577,21.925-43.996,34.581-66.5c10.733-19.141,22.454-38.222,37.293-55.05
						c3.37-3.813,6.904-7.478,10.607-10.994c35.699-33.933,84.407-52.308,133.097-57.367"/>
					<path style="fill:none;stroke:#FFFFFF;stroke-miterlimit:10;" d="M-121.031,335.604c27.738,9.094,59.36,7.181,85.99-5.591
						c5.745-2.756,11.246-6.012,16.431-9.731c18.854-13.527,33.301-33.159,40.594-55.073c4.028-12.155,5.835-24.728,5.597-37.385
						c-0.521-27.97-10.628-55.431-11.893-83.438c-0.499-10.988,0.349-22.424,5.437-32.018c5.431-10.24,15.453-16.974,25.809-20.257
						c10.139-3.214,20.767-3.2,31.513-2.78c21.63,0.845,44.446,4.896,67.187,9.355c13.815,2.709,27.669,5.44,41.681,7.488
						c16.285,2.381,33.004,3.714,49.369,3.058c20.874-0.851,41.223-4.902,59.275-13.58c14.535-6.987,26.523-15.95,36.878-26.058
						c21.13-20.753,35.575-46.565,50.05-72.137c11.712-20.627,23.62-42.285,36.807-64.377
						c11.173-18.781,23.102-37.729,38.149-54.319c3.421-3.763,7.008-7.363,10.764-10.803c36.177-33.19,85.429-49.905,133.938-54.269
						"/>
					<path style="fill:none;stroke:#FFFFFF;stroke-miterlimit:10;" d="M-124.716,337.926c27.932,9.77,60.132,8.189,87.204-4.695
						c5.84-2.779,11.428-6.079,16.689-9.856c19.132-13.735,33.728-33.755,40.892-56.069c3.962-12.397,5.604-25.162,5.208-37.993
						c-0.872-28.35-11.327-56.161-12.882-84.549c-0.613-11.141,0.101-22.724,5.02-32.575c5.161-10.336,14.796-17.378,24.866-21.079
						c9.802-3.603,20.194-3.803,30.768-4.091c21.421-0.584,44.33,3.402,67.105,7.589c13.836,2.544,27.7,5.204,41.709,7.265
						c16.286,2.396,32.973,3.867,49.329,3.442c20.85-0.558,41.22-4.154,59.435-12.155c14.639-6.43,26.889-14.758,37.612-24.181
						c21.86-19.347,37.531-43.583,53.106-67.975c12.607-19.678,25.316-40.573,39.034-62.255
						c11.612-18.422,23.75-37.237,39.005-53.588c3.473-3.712,7.112-7.248,10.92-10.613c36.654-32.448,86.452-47.502,134.778-51.172"
						/>
					<path style="fill:none;stroke:#FFFFFF;stroke-miterlimit:10;" d="M-128.401,340.248c28.126,10.446,60.904,9.196,88.419-3.8
						c5.935-2.803,11.61-6.146,16.947-9.98c19.409-13.942,34.156-34.35,41.19-57.065c3.895-12.64,5.373-25.596,4.818-38.601
						c-1.222-28.729-12.026-56.89-13.871-85.66c-0.727-11.294-0.144-23.02,4.602-33.132c4.896-10.43,14.138-17.779,23.922-21.901
						c9.465-3.988,19.614-4.92,30.024-5.402c21.229-0.982,44.213,1.907,67.023,5.823c13.856,2.379,27.731,4.968,41.736,7.042
						c16.286,2.412,32.941,4.019,49.289,3.825c20.826-0.265,41.215-3.406,59.596-10.73c14.742-5.874,27.255-13.566,38.345-22.303
						c22.59-17.942,39.487-40.601,56.163-63.813c13.501-18.728,27.012-38.861,41.26-60.133
						c12.051-18.063,24.398-36.744,39.862-52.857c3.524-3.661,7.217-7.134,11.077-10.423
						c37.131-31.705,87.474-45.099,135.618-48.075"/>
					<path style="fill:none;stroke:#FFFFFF;stroke-miterlimit:10;" d="M-132.087,342.57c28.321,11.122,61.676,10.203,89.633-2.904
						c6.03-2.827,11.792-6.214,17.205-10.104c19.686-14.15,34.583-34.946,41.488-58.061c3.828-12.882,5.143-26.03,4.429-39.209
						c-1.572-29.109-12.725-57.62-14.86-86.771c-0.842-11.448-0.386-23.314,4.185-33.689c4.634-10.52,13.481-18.176,22.979-22.723
						c9.128-4.37,19.039-5.785,29.28-6.713c21.032-1.905,44.097,0.413,66.942,4.058c13.876,2.215,27.762,4.733,41.764,6.819
						c16.287,2.427,32.91,4.172,49.249,4.209c20.802,0.028,41.209-2.66,59.756-9.306c14.844-5.319,27.638-12.349,39.079-20.426
						c23.355-16.488,41.444-37.618,59.219-59.65c14.396-17.779,28.707-37.149,43.487-58.011
						c12.491-17.704,25.046-36.251,40.718-52.126c3.576-3.611,7.321-7.019,11.233-10.232
						c37.608-30.962,88.497-42.696,136.459-44.978"/>
					<path style="fill:none;stroke:#FFFFFF;stroke-miterlimit:10;" d="M-135.772,344.892c28.515,11.798,62.448,11.211,90.848-2.008
						c6.125-2.851,11.973-6.281,17.462-10.229c19.963-14.358,35.011-35.542,41.786-59.058c3.761-13.124,4.912-26.464,4.039-39.817
						c-1.923-29.489-13.424-58.35-15.849-87.882c-0.956-11.601-0.623-23.606,3.767-34.247c4.377-10.608,12.823-18.57,22.036-23.546
						c8.792-4.749,18.465-6.654,28.535-8.024c20.836-2.835,43.981-1.081,66.86,2.292c13.897,2.049,27.793,4.497,41.791,6.596
						c16.287,2.443,32.879,4.324,49.209,4.592c20.778,0.322,41.203-1.915,59.916-7.881c14.946-4.765,28.003-11.155,39.813-18.548
						c24.084-15.078,43.4-34.636,62.275-55.488c15.291-16.829,30.403-35.437,45.713-55.888
						c12.93-17.344,25.694-35.758,41.574-51.396c3.628-3.56,7.426-6.904,11.389-10.042c38.086-30.22,89.52-40.293,137.299-41.881"/>
					<path style="fill:none;stroke:#FFFFFF;stroke-miterlimit:10;" d="M-139.457,347.214c28.71,12.474,63.221,12.218,92.062-1.112
						c6.221-2.875,12.155-6.349,17.72-10.353c20.241-14.565,35.438-36.137,42.084-60.054c3.694-13.367,4.682-26.898,3.65-40.425
						c-2.273-29.868-14.123-59.079-16.838-88.993c-1.07-11.754-0.857-23.896,3.349-34.804c4.124-10.695,12.168-18.96,21.092-24.368
						c8.457-5.124,17.891-7.526,27.791-9.335c20.641-3.771,43.865-2.576,66.778,0.526c13.917,1.885,27.823,4.261,41.819,6.373
						c16.288,2.459,32.848,4.477,49.169,4.976c20.754,0.615,41.196-1.172,60.077-6.456c15.047-4.211,28.368-9.961,40.546-16.671
						c24.812-13.67,45.356-31.653,65.331-51.326c16.186-15.879,32.098-33.726,47.939-53.766
						c13.369-16.985,26.343-35.265,42.431-50.665c3.679-3.51,7.53-6.789,11.546-9.851c38.563-29.477,90.542-37.89,138.139-38.784"/>
					<path style="fill:none;stroke:#FFFFFF;stroke-miterlimit:10;" d="M-143.142,349.535c28.904,13.15,63.993,13.225,93.277-0.216
						c6.316-2.899,12.337-6.416,17.978-10.477c20.518-14.773,35.866-36.733,42.382-61.05c3.627-13.609,4.451-27.333,3.261-41.033
						c-2.623-30.248-14.822-59.809-17.827-90.104c-1.185-11.908-1.086-24.185,2.932-35.361c3.875-10.78,11.513-19.348,20.149-25.19
						c8.124-5.496,17.317-8.401,27.047-10.646c20.444-4.715,43.749-4.07,66.696-1.239c13.937,1.72,27.854,4.025,41.847,6.15
						c16.289,2.474,32.817,4.63,49.129,5.359c20.73,0.908,41.189-0.429,60.237-5.031c15.148-3.66,28.732-8.768,41.28-14.793
						c25.539-12.263,47.313-28.671,68.388-47.164c17.081-14.93,33.794-32.014,50.166-51.644
						c13.808-16.626,26.991-34.772,43.287-49.934c3.731-3.459,7.634-6.674,11.702-9.661c39.04-28.734,91.565-35.487,138.979-35.687"
						/>
					<path style="fill:none;stroke:#FFFFFF;stroke-miterlimit:10;" d="M-146.828,351.857c29.098,13.826,64.765,14.233,94.491,0.68
						c6.411-2.923,12.519-6.483,18.236-10.602c20.795-14.981,36.293-37.328,42.681-62.046c3.56-13.851,4.22-27.767,2.871-41.641
						C8.477,207.621-4.07,177.71-7.365,147.033c-1.299-12.061-1.31-24.472,2.514-35.918c3.63-10.863,10.861-19.732,19.206-26.012
						c7.792-5.865,16.742-9.28,26.303-11.956c20.246-5.667,43.632-5.564,66.614-3.005c13.958,1.555,27.885,3.789,41.874,5.927
						c16.289,2.49,32.786,4.782,49.089,5.743c20.706,1.201,41.181,0.311,60.398-3.606c15.248-3.109,29.096-7.576,42.013-12.916
						c26.266-10.858,49.269-25.689,71.444-43.002c17.976-13.98,35.489-30.302,52.392-49.521
						c14.247-16.267,27.639-34.279,44.143-49.203c3.782-3.409,7.739-6.559,11.858-9.471c39.517-27.992,92.587-33.084,139.82-32.589"
						/>
					<path style="fill:none;stroke:#FFFFFF;stroke-miterlimit:10;" d="M-150.513,354.179c29.293,14.502,65.537,15.24,95.705,1.576
						c6.506-2.947,12.701-6.551,18.494-10.726c21.072-15.188,36.721-37.924,42.979-63.042c3.493-14.094,3.99-28.201,2.482-42.249
						c-3.324-31.007-16.22-61.269-19.806-92.326c-1.413-12.214-1.531-24.759,2.097-36.476C-5.173,99.99,1.65,90.824,9.7,84.102
						c7.463-6.231,16.165-10.163,25.558-13.267c20.045-6.625,43.516-7.058,66.532-4.771c13.978,1.39,27.916,3.553,41.902,5.704
						c16.29,2.505,32.754,4.935,49.049,6.126c20.682,1.494,41.173,1.05,60.558-2.182c15.349-2.559,29.46-6.384,42.747-11.038
						c26.992-9.454,51.225-22.707,74.5-38.84c18.871-13.03,37.185-28.59,54.619-47.399c14.687-15.907,28.287-33.786,45-48.472
						c3.834-3.358,7.843-6.445,12.015-9.28c39.995-27.249,93.609-30.681,140.66-29.492"/>
					<path style="fill:none;stroke:#FFFFFF;stroke-miterlimit:10;" d="M-154.198,356.501c29.487,15.178,66.309,16.247,96.92,2.472
						c6.601-2.971,12.882-6.618,18.751-10.851c21.35-15.396,37.148-38.519,43.277-64.038c3.426-14.336,3.759-28.635,2.092-42.857
						c-3.674-31.387-16.919-61.998-20.795-93.437c-1.528-12.367-1.747-25.044,1.679-37.033c3.151-11.028,9.565-20.491,17.319-27.656
						c7.137-6.595,15.587-11.048,24.814-14.578c19.841-7.591,43.4-8.552,66.451-6.536c13.998,1.225,27.947,3.318,41.93,5.481
						c16.29,2.521,32.723,5.087,49.008,6.51c20.658,1.787,41.165,1.788,60.719-0.757c15.449-2.011,29.816-5.22,43.481-9.16
						c27.702-8.106,53.182-19.724,77.556-34.678c19.765-12.081,38.88-26.878,56.845-45.277
						c15.126-15.548,28.935-33.293,45.856-47.741c3.885-3.308,7.948-6.33,12.171-9.09c40.472-26.506,94.632-28.278,141.5-26.395"/>
					<path style="fill:none;stroke:#FFFFFF;stroke-miterlimit:10;" d="M-157.883,358.823c29.682,15.853,67.081,17.254,98.134,3.368
						c6.696-2.995,13.064-6.686,19.009-10.975c21.627-15.604,37.575-39.115,43.575-65.034c3.359-14.578,3.529-29.069,1.703-43.465
						c-4.024-31.766-17.618-62.728-21.784-94.548c-1.642-12.521-1.958-25.329,1.261-37.59C-13.066,99.468-7.062,89.71,0.392,82.1
						c6.814-6.957,15.007-11.936,24.07-15.889c19.631-8.562,43.284-10.047,66.369-8.302c14.019,1.06,27.978,3.082,41.957,5.258
						c16.291,2.537,32.692,5.24,48.968,6.893c20.634,2.08,41.158,2.524,60.879,0.668c15.55-1.464,30.182-4.028,44.214-7.283
						c28.432-6.701,55.138-16.742,80.612-30.516c20.66-11.131,40.576-25.166,59.072-43.155c15.565-15.189,29.583-32.8,46.712-47.011
						c3.937-3.257,8.052-6.215,12.327-8.899c40.949-25.764,95.655-25.875,142.341-23.298"/>
					<path style="fill:none;stroke:#FFFFFF;stroke-miterlimit:10;" d="M-161.569,361.144c29.876,16.529,67.854,18.262,99.349,4.264
						c6.791-3.018,13.246-6.753,19.267-11.099c21.904-15.811,38.003-39.711,43.873-66.03c3.292-14.821,3.298-29.503,1.314-44.073
						c-4.375-32.146-18.316-63.457-22.773-95.659c-1.756-12.674-2.166-25.614,0.844-38.147c2.688-11.193,8.283-21.243,15.432-29.3
						c6.494-7.319,14.424-12.827,23.326-17.2C38.479,54.36,62.23,52.358,85.35,53.831c14.039,0.895,28.008,2.846,41.985,5.035
						c16.291,2.552,32.661,5.393,48.928,7.277c20.61,2.373,41.15,3.259,61.04,2.092c15.651-0.918,30.547-2.835,44.948-5.406
						c29.162-5.296,57.094-13.76,83.669-26.354c21.555-10.182,42.271-23.455,61.298-41.032c16.005-14.83,30.232-32.307,47.569-46.28
						c3.988-3.206,8.156-6.1,12.484-8.709c41.426-25.021,96.677-23.472,143.181-20.201"/>
					<path style="fill:none;stroke:#FFFFFF;stroke-miterlimit:10;" d="M-165.254,363.466c30.07,17.205,68.626,19.269,100.563,5.16
						c6.886-3.042,13.428-6.82,19.525-11.224c22.181-16.019,38.43-40.306,44.172-67.026c3.225-15.063,3.067-29.937,0.924-44.681
						c-4.725-32.525-19.015-64.187-23.762-96.77c-1.87-12.827-2.368-25.899,0.426-38.705c2.46-11.275,7.647-21.618,14.489-30.123
						c6.177-7.679,13.838-13.719,22.581-18.511C32.86,51.067,56.716,48.552,79.869,49.754c14.06,0.73,28.039,2.61,42.012,4.812
						c16.292,2.568,32.63,5.545,48.888,7.66c20.586,2.666,41.144,3.992,61.2,3.517c15.752-0.373,30.913-1.643,45.681-3.528
						c29.893-3.89,59.051-10.777,86.725-22.192c22.45-9.232,43.967-21.743,63.525-38.91c16.444-14.471,30.88-31.815,48.425-45.549
						c4.04-3.156,8.261-5.985,12.64-8.519c41.904-24.278,97.7-21.069,144.021-17.104"/>
					<path style="fill:none;stroke:#FFFFFF;stroke-miterlimit:10;" d="M-168.939,365.788c30.265,17.881,69.398,20.277,101.777,6.056
						c6.981-3.066,13.609-6.888,19.783-11.348c22.459-16.227,38.857-40.902,44.47-68.022c3.158-15.305,2.837-30.371,0.535-45.289
						c-5.075-32.905-19.714-64.917-24.751-97.881c-1.985-12.981-2.567-26.185,0.008-39.262c2.237-11.358,7.016-21.992,13.546-30.945
						c5.864-8.04,13.25-14.613,21.837-19.822c18.968-11.506,42.935-14.529,66.123-13.599c14.08,0.565,28.07,2.374,42.04,4.589
						c16.292,2.583,32.599,5.698,48.848,8.044c20.562,2.959,41.138,4.688,61.36,4.942c15.854,0.143,31.279-0.451,46.415-1.65
						c30.623-2.485,61.007-7.795,89.781-18.03c23.345-8.282,45.663-20.031,65.751-36.788c16.883-14.111,31.528-31.322,49.281-44.818
						c4.092-3.105,8.365-5.87,12.797-8.328c42.381-23.536,98.722-18.666,144.862-14.006"/>
					<path style="fill:none;stroke:#FFFFFF;stroke-miterlimit:10;" d="M-172.624,368.11c30.459,18.557,70.17,21.284,102.992,6.952
						c7.077-3.09,13.791-6.955,20.041-11.473c22.736-16.434,39.285-41.497,44.768-69.018c3.091-15.548,2.606-30.806,0.145-45.897
						c-5.426-33.285-20.413-65.646-25.74-98.992c-2.099-13.134-2.761-26.47-0.409-39.819c2.016-11.442,6.387-22.366,12.602-31.767
						c5.554-8.401,12.658-15.508,21.093-21.133C21.602,44.469,45.686,40.94,68.909,41.598c14.1,0.4,28.101,2.139,42.068,4.366
						c16.293,2.599,32.567,5.85,48.808,8.427c20.538,3.252,41.133,5.43,61.521,6.367c15.957,0.694,31.645,0.741,47.149,0.227
						c31.353-1.08,62.963-4.813,92.837-13.868c24.24-7.333,47.358-18.319,67.977-34.665c17.322-13.752,32.176-30.829,50.138-44.087
						c4.143-3.055,8.469-5.756,12.953-8.138c42.858-22.793,99.745-16.263,145.702-10.909"/>
					<path style="fill:none;stroke:#FFFFFF;stroke-miterlimit:10;" d="M-176.31,370.432c30.654,19.233,70.942,22.291,104.206,7.848
						c7.172-3.114,13.973-7.023,20.298-11.597c23.013-16.642,39.713-42.093,45.066-70.014c3.024-15.79,2.376-31.24-0.244-46.505
						c-5.776-33.664-21.112-66.376-26.729-100.103c-2.213-13.288-2.951-26.757-0.827-40.376
						c1.798-11.526,5.763-22.741,11.659-32.589c5.246-8.762,12.064-16.403,20.349-22.444c18.494-13.485,42.703-17.518,65.96-17.131
						c14.121,0.235,28.132,1.903,42.095,4.143c16.293,2.615,32.536,6.003,48.768,8.811c20.514,3.545,41.128,6.171,61.681,7.792
						c16.059,1.246,32.011,1.933,47.882,2.105c32.083,0.325,64.919-1.83,95.894-9.705c25.134-6.383,49.054-16.607,70.204-32.543
						c17.762-13.393,32.824-30.336,50.994-43.356c4.195-3.004,8.574-5.641,13.109-7.947c43.335-22.05,100.767-13.861,146.542-7.812"
						/>
					<path style="fill:none;stroke:#FFFFFF;stroke-miterlimit:10;" d="M-179.995,372.754c30.848,19.909,71.714,23.298,105.421,8.743
						c33.706-14.555,59.26-46.626,65.92-82.731c12.048-65.314-38.469-124.139-29.596-189.26
						c2.985-21.904,13.002-43.427,30.32-57.166c18.247-14.476,42.586-19.012,65.878-18.896c30.646,0.153,60.729,7.472,90.851,13.115
						c36.474,6.832,73.401,11.244,110.458,13.199c59.443,3.135,122.983-1.307,171.38-35.964
						c18.201-13.034,33.472-29.843,51.85-42.626c44.802-31.162,110.281-19.921,160.648-12.472"/>
				</g>
				<g style="opacity:0.31;">
					<path style="fill:none;stroke:#FFFFFF;stroke-miterlimit:10;" d="M316,702.798c31.749-0.048,63.459-13.483,84.826-36.967
						c21.367-23.484,31.777-56.807,26.57-88.127c-4.084-24.568-17.045-46.873-22.109-71.258c-1.983-9.549-2.665-19.804,1.154-28.778
						c4.435-10.421,14.47-17.67,25.235-21.187c10.765-3.517,22.301-3.764,33.625-3.549c35.759,0.68,71.509,5.639,107.183,3.087
						c35.674-2.552,72.502-13.739,96.859-39.928c33.88-36.429,34.589-87.071,37.65-133.409
						c3.393-51.371,9.313-103.663,35.816-148.947c24.116-41.205,62.497-73.877,107.025-91.102"/>
					<path style="fill:none;stroke:#FFFFFF;stroke-miterlimit:10;" d="M313.029,705.704c26.431,0.552,53.124-8.351,73.842-24.839
						c4.47-3.558,8.661-7.467,12.512-11.704c14.006-15.404,23.294-35.049,26.503-55.564c1.763-11.297,1.69-22.803-0.34-34.041
						c-4.487-24.851-17.843-47.414-23.255-72.096c-2.12-9.669-2.972-20.047,0.653-29.214c4.142-10.472,13.78-17.927,24.191-21.765
						c10.377-3.825,21.584-4.437,32.667-4.622c21.858-0.365,44.076,1.131,66.274,1.767c13.487,0.387,26.977,0.427,40.46-0.524
						c15.655-1.105,31.526-3.752,46.509-8.517c19.156-6.095,36.864-15.654,50.826-29.749c11.306-11.441,19.219-24.356,24.928-38.124
						c11.693-28.256,14.148-60.134,17.469-90.411c2.685-24.417,5.848-49.21,11.406-73.571c4.726-20.749,11.165-41.15,20.905-60.365
						c2.203-4.344,4.578-8.619,7.137-12.822c24.71-40.608,63.933-71.84,108.43-88.382"/>
					<path style="fill:none;stroke:#FFFFFF;stroke-miterlimit:10;" d="M310.057,708.609c26.748,1.143,54.047-7.566,75.154-24.247
						c4.554-3.599,8.817-7.567,12.728-11.871c14.223-15.654,23.573-35.69,26.581-56.553c1.652-11.509,1.388-23.161-0.825-34.53
						c-4.89-25.135-18.642-47.954-24.4-72.934c-2.258-9.789-3.277-20.286,0.152-29.65c3.852-10.52,13.089-18.183,23.146-22.342
						c9.987-4.131,20.868-5.113,31.71-5.696c21.475-1.155,43.667-0.24,65.843,0.137c13.473,0.229,26.958,0.201,40.441-0.738
						c15.658-1.09,31.527-3.604,46.548-8.151c19.192-5.817,37.008-14.961,51.262-28.452c11.513-10.947,19.8-23.317,25.989-36.52
						c12.657-27.091,16.571-57.744,21.155-87.142c3.71-23.711,7.773-47.954,13.909-72.038c5.208-20.503,11.869-40.82,21.851-59.855
						c2.262-4.307,4.699-8.533,7.321-12.676c25.304-40.011,65.369-69.804,109.836-85.661"/>
					<path style="fill:none;stroke:#FFFFFF;stroke-miterlimit:10;" d="M307.085,711.514c27.065,1.735,54.969-6.781,76.467-23.654
						c4.638-3.641,8.973-7.666,12.944-12.039c14.44-15.903,23.852-36.331,26.66-57.542c1.541-11.722,1.085-23.52-1.31-35.019
						c-5.293-25.419-19.44-48.495-25.546-73.771c-2.395-9.909-3.579-20.523-0.35-30.086c3.567-10.563,12.396-18.436,22.101-22.92
						c9.596-4.434,20.154-5.79,30.753-6.769c21.096-1.95,43.259-1.61,65.413-1.494c13.459,0.071,26.94-0.025,40.422-0.952
						c15.662-1.076,31.529-3.455,46.588-7.785c19.229-5.538,37.152-14.269,51.697-27.155c11.719-10.453,20.38-22.278,27.05-34.916
						c13.62-25.927,18.995-55.355,24.841-83.873c4.735-23.004,9.699-46.697,16.411-70.505c5.69-20.256,12.572-40.49,22.796-59.345
						c2.32-4.27,4.819-8.447,7.505-12.53c25.898-39.414,66.805-67.767,111.241-82.941"/>
					<path style="fill:none;stroke:#FFFFFF;stroke-miterlimit:10;" d="M304.113,714.42c27.382,2.326,55.891-5.997,77.78-23.063
						c4.722-3.682,9.129-7.765,13.159-12.207c14.657-16.152,24.131-36.973,26.738-58.531c1.43-11.934,0.783-23.879-1.796-35.508
						c-5.696-25.703-20.239-49.035-26.691-74.609c-2.533-10.029-3.878-20.757-0.851-30.522
						c3.287-10.604,11.703-18.686,21.056-23.497c9.205-4.735,19.441-6.469,29.795-7.843c20.72-2.748,42.851-2.981,64.982-3.125
						c13.445-0.087,26.921-0.251,40.403-1.165c15.666-1.062,31.531-3.307,46.627-7.419c19.265-5.26,37.323-13.544,52.133-25.859
						c11.947-9.934,20.961-21.24,28.111-33.312c14.583-24.763,21.418-52.965,28.527-80.604
						c5.761-22.298,11.624-45.441,18.914-68.972c6.172-20.009,13.276-40.16,23.742-58.835c2.378-4.233,4.939-8.361,7.689-12.384
						c26.492-38.817,68.241-65.731,112.646-80.22"/>
					<path style="fill:none;stroke:#FFFFFF;stroke-miterlimit:10;" d="M301.141,717.325c27.699,2.918,56.814-5.212,79.092-22.47
						c4.806-3.723,9.285-7.865,13.375-12.375c14.874-16.401,24.41-37.614,26.816-59.519c1.319-12.147,0.481-24.237-2.281-35.997
						c-6.099-25.987-21.037-49.575-27.837-75.447c-2.67-10.149-4.173-20.988-1.352-30.958c3.012-10.642,11.009-18.934,20.011-24.075
						c8.813-5.033,18.73-7.152,28.838-8.916c20.347-3.552,42.443-4.351,64.551-4.755c13.431-0.245,26.902-0.477,40.384-1.379
						c15.669-1.047,31.532-3.158,46.667-7.053c19.301-4.982,37.471-12.845,52.568-24.562c12.157-9.435,21.541-20.201,29.172-31.708
						c15.546-23.598,23.841-50.576,32.213-77.334c6.786-21.592,13.549-44.184,21.417-67.439
						c6.654-19.762,13.979-39.831,24.687-58.325c2.436-4.196,5.06-8.275,7.873-12.238c27.087-38.22,69.677-63.695,114.052-77.5"/>
					<path style="fill:none;stroke:#FFFFFF;stroke-miterlimit:10;" d="M298.169,720.23c28.016,3.509,57.736-4.427,80.405-21.878
						c4.89-3.765,9.441-7.964,13.59-12.542c15.091-16.651,24.69-38.255,26.894-60.508c1.208-12.36,0.179-24.596-2.766-36.486
						c-6.502-26.271-21.835-50.116-28.982-76.285c-2.807-10.269-4.466-21.217-1.854-31.394c2.74-10.678,10.315-19.179,18.966-24.653
						c8.421-5.328,18.019-7.837,27.881-9.99c19.976-4.361,42.034-5.722,64.121-6.386c13.417-0.403,26.884-0.703,40.365-1.592
						c15.673-1.033,31.534-3.009,46.706-6.688c19.338-4.704,37.617-12.146,53.004-23.265c12.365-8.936,22.122-19.162,30.233-30.104
						c16.509-22.434,26.265-48.186,35.9-74.065c7.811-20.886,15.474-42.927,23.92-65.906c7.135-19.515,14.683-39.501,25.633-57.815
						c2.495-4.16,5.18-8.189,8.057-12.091c27.681-37.623,71.113-61.658,115.457-74.779"/>
					<path style="fill:none;stroke:#FFFFFF;stroke-miterlimit:10;" d="M295.198,723.136c28.333,4.101,58.659-3.643,81.717-21.286
						c4.974-3.806,9.597-8.063,13.806-12.71c15.307-16.9,24.969-38.897,26.973-61.497c1.097-12.572-0.124-24.955-3.251-36.975
						c-6.905-26.554-22.634-50.656-30.128-77.123c-2.945-10.389-4.754-21.444-2.355-31.83c2.474-10.711,9.621-19.421,17.921-25.23
						c8.029-5.62,17.309-8.525,26.923-11.064c19.606-5.176,41.626-7.092,63.69-8.016c13.403-0.561,26.865-0.93,40.346-1.806
						c15.677-1.018,31.535-2.861,46.746-6.322c19.374-4.426,37.763-11.448,53.439-21.968c12.573-8.438,22.702-18.123,31.294-28.499
						c17.472-21.27,28.688-45.797,39.586-70.796c8.837-20.179,17.399-41.671,26.423-64.373
						c7.617-19.268,15.386-39.171,26.578-57.305c2.553-4.123,5.301-8.103,8.241-11.945c28.275-37.026,72.549-59.622,116.862-72.059"
						/>
					<path style="fill:none;stroke:#FFFFFF;stroke-miterlimit:10;" d="M292.226,726.041c28.65,4.692,59.581-2.858,83.03-20.694
						c5.058-3.847,9.753-8.162,14.021-12.878c15.525-17.15,25.248-39.538,27.051-62.486c0.986-12.785-0.426-25.314-3.737-37.464
						c-7.308-26.838-23.432-51.197-31.274-77.961c-3.082-10.51-5.038-21.671-2.856-32.266c2.212-10.743,8.928-19.66,16.876-25.808
						c7.638-5.908,16.6-9.217,25.966-12.137c19.237-5.997,41.218-8.463,63.259-9.647c13.388-0.719,26.847-1.156,40.327-2.019
						c15.68-1.004,31.537-2.712,46.785-5.956c19.411-4.148,37.908-10.75,53.875-20.671c12.78-7.94,23.304-17.065,32.355-26.895
						c18.478-20.066,31.112-43.407,43.272-67.526c9.862-19.473,19.324-40.414,28.925-62.84c8.099-19.021,16.09-38.842,27.523-56.795
						c2.611-4.086,5.421-8.016,8.425-11.799c28.869-36.429,73.985-57.585,118.267-69.338"/>
					<path style="fill:none;stroke:#FFFFFF;stroke-miterlimit:10;" d="M289.254,728.946c28.967,5.284,60.503-2.073,84.343-20.102
						c5.142-3.889,9.909-8.262,14.237-13.046c15.741-17.399,25.527-40.179,27.129-63.475c0.875-12.997-0.728-25.672-4.222-37.953
						c-7.711-27.122-24.231-51.737-32.419-78.799c-3.219-10.63-5.318-21.895-3.358-32.702c1.954-10.774,8.236-19.896,15.831-26.385
						c7.249-6.194,15.89-9.912,25.009-13.211c18.868-6.825,40.81-9.834,62.829-11.278c13.375-0.877,26.828-1.382,40.308-2.233
						c15.684-0.989,31.538-2.564,46.825-5.59c19.447-3.869,38.051-10.054,54.311-19.374c12.986-7.444,23.884-16.025,33.417-25.291
						c19.441-18.898,33.535-41.018,46.958-64.257c10.887-18.767,21.25-39.158,31.428-61.307
						c8.581-18.774,16.794-38.512,28.469-56.285c2.669-4.049,5.542-7.93,8.609-11.653c29.464-35.832,75.421-55.549,119.673-66.618"
						/>
					<path style="fill:none;stroke:#FFFFFF;stroke-miterlimit:10;" d="M286.282,731.852c29.284,5.875,61.426-1.289,85.655-19.51
						c5.226-3.93,10.065-8.361,14.452-13.213c15.958-17.648,25.807-40.821,27.207-64.464c0.763-13.21-1.03-26.031-4.707-38.442
						c-8.114-27.406-25.029-52.278-33.565-79.637c-3.357-10.75-5.594-22.119-3.859-33.138c1.701-10.804,7.546-20.128,14.786-26.963
						c6.861-6.477,15.18-10.61,24.051-14.284c18.497-7.66,40.401-11.204,62.398-12.909c13.36-1.034,26.809-1.608,40.289-2.446
						c15.687-0.975,31.54-2.415,46.865-5.225c19.483-3.591,38.194-9.359,54.746-18.077c13.191-6.948,24.464-14.984,34.478-23.687
						c20.402-17.731,35.958-38.628,50.644-60.988c11.912-18.061,23.175-37.901,33.931-59.774
						c9.063-18.527,17.497-38.182,29.414-55.776c2.728-4.012,5.662-7.844,8.793-11.506c30.058-35.235,76.857-53.513,121.078-63.897"
						/>
					<path style="fill:none;stroke:#FFFFFF;stroke-miterlimit:10;" d="M283.31,734.757c29.601,6.467,62.348-0.504,86.968-18.918
						c5.31-3.971,10.221-8.461,14.668-13.381c16.175-17.898,26.086-41.462,27.286-65.453c0.652-13.423-1.333-26.39-5.192-38.931
						c-8.517-27.69-25.828-52.818-34.71-80.475c-3.494-10.87-5.865-22.342-4.36-33.574c1.452-10.833,6.858-20.358,13.741-27.541
						c6.475-6.757,14.468-11.312,23.094-15.357c18.125-8.501,39.993-12.575,61.967-14.539c13.346-1.192,26.791-1.835,40.27-2.66
						c15.691-0.96,31.541-2.266,46.904-4.859c19.52-3.313,38.336-8.665,55.182-16.78c13.396-6.453,25.043-13.944,35.539-22.082
						c21.363-16.564,38.382-36.239,54.33-57.719c12.938-17.354,25.1-36.644,36.433-58.241c9.545-18.28,18.201-37.852,30.36-55.266
						c2.786-3.975,5.782-7.758,8.977-11.36c30.652-34.638,78.293-51.476,122.483-61.177"/>
					<path style="fill:none;stroke:#FFFFFF;stroke-miterlimit:10;" d="M280.339,737.662c29.918,7.058,63.271,0.281,88.28-18.326
						c5.394-4.013,10.377-8.56,14.884-13.549c16.392-18.147,26.365-42.103,27.364-66.442c0.541-13.635-1.635-26.748-5.677-39.42
						c-8.92-27.974-26.626-53.358-35.856-81.313c-3.632-10.99-6.133-22.565-4.862-34.01c1.206-10.862,6.172-20.586,12.696-28.118
						c6.092-7.034,13.755-12.016,22.137-16.431c17.749-9.349,39.585-13.945,61.537-16.17c13.332-1.35,26.772-2.061,40.251-2.873
						c15.695-0.946,31.543-2.118,46.944-4.493c19.556-3.035,38.478-7.973,55.617-15.483c13.6-5.96,25.622-12.905,36.6-20.478
						c22.323-15.399,40.805-33.85,58.016-54.449c13.963-16.648,27.025-35.388,38.936-56.708
						c10.026-18.033,18.904-37.522,31.305-54.756c2.844-3.939,5.903-7.672,9.161-11.214c31.246-34.041,79.729-49.44,123.889-58.456"
						/>
					<path style="fill:none;stroke:#FFFFFF;stroke-miterlimit:10;" d="M277.367,740.568c30.235,7.65,64.193,1.066,89.593-17.734
						c5.478-4.054,10.533-8.659,15.099-13.717c16.609-18.396,26.644-42.745,27.442-67.431c0.43-13.848-1.937-27.107-6.163-39.909
						c-9.323-28.257-27.425-53.899-37.001-82.151c-3.769-11.11-6.396-22.788-5.363-34.445c0.965-10.891,5.49-20.811,11.651-28.696
						c5.712-7.31,13.04-12.724,21.179-17.505c17.369-10.203,39.177-15.316,61.106-17.801c13.318-1.508,26.754-2.287,40.232-3.087
						c15.698-0.931,31.544-1.969,46.983-4.127c19.593-2.757,38.619-7.282,56.053-14.187c13.804-5.467,26.2-11.866,37.661-18.874
						c23.282-14.235,43.228-31.46,61.702-51.18c14.988-15.942,28.95-34.131,41.439-55.175
						c10.508-17.786,19.608-37.193,32.251-54.246c2.903-3.902,6.023-7.586,9.346-11.068c31.84-33.444,81.165-47.404,125.294-55.736"
						/>
					<path style="fill:none;stroke:#FFFFFF;stroke-miterlimit:10;" d="M274.395,743.473c30.552,8.241,65.115,1.85,90.906-17.142
						c5.562-4.096,10.689-8.759,15.315-13.884c16.826-18.646,26.923-43.386,27.52-68.42c0.319-14.061-2.239-27.466-6.648-40.398
						c-9.725-28.541-28.223-54.439-38.147-82.989c-3.906-11.23-6.655-23.011-5.865-34.882c0.727-10.92,4.811-21.034,10.606-29.274
						c5.334-7.584,12.323-13.434,20.222-18.578c16.985-11.062,38.769-16.686,60.676-19.431c13.304-1.666,26.735-2.513,40.213-3.301
						c15.702-0.917,31.546-1.82,47.023-3.761c19.629-2.478,38.759-6.592,56.488-12.89c14.008-4.976,26.766-10.852,38.722-17.27
						c24.215-13.12,45.652-29.071,65.388-47.911c16.014-15.235,30.875-32.874,43.942-53.642
						c10.99-17.539,20.311-36.863,33.196-53.736c2.961-3.865,6.144-7.499,9.53-10.921c32.435-32.847,82.601-45.367,126.699-53.015"
						/>
					<path style="fill:none;stroke:#FFFFFF;stroke-miterlimit:10;" d="M271.423,746.378c30.869,8.833,66.038,2.635,92.218-16.55
						c5.646-4.137,10.845-8.858,15.53-14.052c17.043-18.895,27.203-44.027,27.599-69.409c0.208-14.273-2.541-27.824-7.133-40.887
						c-10.128-28.825-29.021-54.98-39.293-83.827c-4.044-11.35-6.909-23.235-6.366-35.318c0.492-10.95,4.136-21.257,9.561-29.851
						c4.96-7.857,11.603-14.146,19.265-19.652c16.594-11.926,38.36-18.057,60.245-21.062c13.29-1.824,26.717-2.739,40.194-3.514
						c15.705-0.903,31.548-1.672,47.062-3.396c19.665-2.2,38.9-5.904,56.924-11.593c14.212-4.486,27.346-9.813,39.783-15.666
						c25.178-11.956,48.075-26.681,69.074-44.642c17.039-14.529,32.801-31.618,46.445-52.109
						c11.472-17.292,21.015-36.533,34.142-53.226c3.019-3.828,6.264-7.413,9.714-10.775c33.029-32.25,84.037-43.331,128.105-50.295"
						/>
					<path style="fill:none;stroke:#FFFFFF;stroke-miterlimit:10;" d="M268.451,749.284c31.186,9.424,66.96,3.42,93.531-15.958
						c5.73-4.179,11.001-8.957,15.746-14.22c17.26-19.145,27.482-44.669,27.677-70.398c0.097-14.486-2.843-28.183-7.618-41.377
						c-10.531-29.109-29.82-55.52-40.438-84.664c-4.181-11.47-7.16-23.459-6.867-35.754c0.261-10.98,3.464-21.479,8.516-30.429
						c4.589-8.13,10.881-14.859,18.307-20.725c16.198-12.794,37.952-19.427,59.814-22.693c13.276-1.982,26.698-2.965,40.175-3.728
						c15.709-0.888,31.549-1.523,47.102-3.03c19.702-1.922,39.04-5.217,57.359-10.296c14.415-3.997,27.927-8.775,40.844-14.061
						c26.141-10.792,50.498-24.292,72.761-41.372c18.064-13.823,34.726-30.361,48.947-50.576
						c11.954-17.045,21.718-36.204,35.087-52.716c3.077-3.791,6.384-7.327,9.898-10.629c33.623-31.653,85.473-41.295,129.51-47.574"
						/>
					<path style="fill:none;stroke:#FFFFFF;stroke-miterlimit:10;" d="M265.479,752.189c31.503,10.016,67.883,4.205,94.844-15.366
						c5.813-4.22,11.157-9.057,15.961-14.388c17.477-19.394,27.761-45.31,27.755-71.387c-0.014-14.699-3.146-28.542-8.104-41.866
						c-10.934-29.393-30.618-56.061-41.584-85.503c-4.319-11.59-7.406-23.684-7.369-36.189c0.033-11.012,2.796-21.7,7.471-31.007
						c4.221-8.403,10.156-15.574,17.35-21.799c15.795-13.666,37.544-20.798,59.384-24.323c13.262-2.14,26.68-3.191,40.156-3.941
						c15.713-0.874,31.551-1.375,47.141-2.664c19.738-1.644,39.181-4.532,57.795-8.999c14.619-3.509,28.507-7.736,41.905-12.457
						c27.104-9.627,52.922-21.902,76.447-38.103c19.09-13.117,36.651-29.105,51.45-49.043
						c12.436-16.798,22.422-35.874,36.033-52.206c3.135-3.754,6.505-7.241,10.082-10.483
						c34.217-31.056,86.909-39.258,130.916-44.854"/>
					<path style="fill:none;stroke:#FFFFFF;stroke-miterlimit:10;" d="M262.508,755.094c31.82,10.607,68.805,4.989,96.156-14.773
						c5.897-4.261,11.313-9.156,16.177-14.555c17.694-19.643,28.04-45.951,27.833-72.376c-0.125-14.911-3.448-28.901-8.589-42.355
						c-11.337-29.677-31.417-56.601-42.729-86.34c-4.456-11.71-7.648-23.91-7.87-36.625c-0.193-11.044,2.132-21.922,6.426-31.584
						c3.857-8.676,9.428-16.29,16.393-22.872c15.385-14.539,37.136-22.169,58.953-25.954c13.248-2.298,26.661-3.418,40.137-4.155
						c15.716-0.859,31.552-1.226,47.181-2.298c19.775-1.366,39.315-3.881,58.231-7.702c14.818-3.048,29.088-6.697,42.966-10.853
						c28.067-8.463,55.345-19.513,80.133-34.834c20.115-12.41,38.576-27.848,53.953-47.51
						c12.918-16.551,23.125-35.544,36.978-51.696c3.194-3.718,6.625-7.155,10.266-10.337
						c34.812-30.459,88.345-37.222,132.321-42.133"/>
					<path style="fill:none;stroke:#FFFFFF;stroke-miterlimit:10;" d="M259.536,758c32.137,11.199,69.727,5.774,97.469-14.181
						c5.981-4.303,11.469-9.255,16.392-14.723c17.911-19.893,28.319-46.593,27.912-73.365c-0.236-15.124-3.75-29.259-9.074-42.844
						c-11.74-29.96-32.215-57.141-43.875-87.178c-4.593-11.83-7.887-24.138-8.371-37.061c-0.415-11.078,1.471-22.145,5.382-32.162
						c3.495-8.951,8.696-17.006,15.435-23.946c14.969-15.414,36.727-23.539,58.522-27.585c13.233-2.456,26.642-3.644,40.118-4.368
						c15.72-0.845,31.554-1.078,47.22-1.933c19.811-1.088,39.46-3.189,58.666-6.405C580.357,389.695,595,386.59,609.36,383
						c29.031-7.299,57.768-17.123,83.819-31.564c21.14-11.704,40.501-26.591,56.456-45.977
						c13.399-16.304,23.829-35.214,37.924-51.186c3.252-3.681,6.746-7.069,10.45-10.19c35.406-29.862,89.781-35.186,133.726-39.413"
						/>
					<path style="fill:none;stroke:#FFFFFF;stroke-miterlimit:10;" d="M256.564,760.905c32.454,11.79,70.65,6.559,98.781-13.589
						c6.065-4.344,11.625-9.355,16.608-14.891c18.128-20.142,28.599-47.234,27.99-74.354c-0.347-15.336-4.052-29.618-9.559-43.333
						c-12.143-30.244-33.014-57.682-45.021-88.016c-4.731-11.951-8.121-24.367-8.873-37.497
						c-0.636-11.113,0.812-22.369,4.337-32.739c3.136-9.226,7.962-17.722,14.478-25.019c14.546-16.29,36.319-24.91,58.092-29.215
						c13.22-2.614,26.624-3.87,40.099-4.582c15.724-0.83,31.555-0.929,47.26-1.567c19.848-0.81,39.604-2.496,59.102-5.109
						c15.231-2.06,30.248-4.619,45.088-7.645c29.994-6.134,60.192-14.734,87.505-28.295c22.165-10.998,42.427-25.335,58.958-44.444
						c13.881-16.057,24.532-34.884,38.869-50.676c3.31-3.644,6.866-6.982,10.634-10.044c36-29.265,91.217-33.149,135.132-36.692"/>
					<path style="fill:none;stroke:#FFFFFF;stroke-miterlimit:10;" d="M253.592,763.81c32.771,12.382,71.572,7.343,100.094-12.997
						c28.522-20.341,45.924-55.385,44.892-90.402c-1.867-63.345-60.794-108.081-65.585-170.609
						c-1.611-21.031,3.414-43.118,16.812-59.41c14.117-17.165,35.911-26.28,57.661-30.846c28.618-6.007,58.149-5.215,87.38-5.996
						c35.395-0.946,70.727-4.239,105.686-9.852c56.08-9.004,114.46-25.897,152.652-67.937c14.363-15.81,25.236-34.555,39.814-50.166
						c35.54-38.058,98.877-40.711,147.355-43.87"/>
				</g>
				<g style="opacity:0.4;">
					<path style="fill:#FFFFFF;" d="M631.904-31.948c-1.061,0-1.922,0.86-1.922,1.921c0,1.061,0.86,1.922,1.922,1.922
						s1.921-0.86,1.921-1.922C633.826-31.087,632.966-31.948,631.904-31.948z"/>
					<path style="fill:#FFFFFF;" d="M653.267-31.948c-1.061,0-1.922,0.86-1.922,1.921c0,1.061,0.86,1.922,1.922,1.922
						c1.061,0,1.921-0.861,1.921-1.922C655.188-31.087,654.328-31.948,653.267-31.948z"/>
					<path style="fill:#FFFFFF;" d="M674.63-31.948c-1.061,0-1.922,0.86-1.922,1.922c0,1.061,0.86,1.922,1.922,1.922
						c1.061,0,1.921-0.86,1.921-1.922C676.551-31.087,675.691-31.948,674.63-31.948z"/>
					<path style="fill:#FFFFFF;" d="M695.993-31.948c-1.061,0-1.922,0.86-1.922,1.922c0,1.061,0.86,1.922,1.922,1.922
						c1.061,0,1.921-0.86,1.921-1.922C697.914-31.087,697.054-31.948,695.993-31.948z"/>
					<path style="fill:#FFFFFF;" d="M717.355-31.948c-1.061,0-1.921,0.86-1.921,1.922c0,1.061,0.86,1.922,1.921,1.922
						c1.061,0,1.922-0.86,1.922-1.922C719.277-31.087,718.417-31.948,717.355-31.948z"/>
					<path style="fill:#FFFFFF;" d="M738.718-31.948c-1.061,0-1.921,0.86-1.921,1.921c0,1.061,0.86,1.922,1.921,1.922
						c1.061,0,1.922-0.86,1.922-1.922C740.64-31.087,739.78-31.948,738.718-31.948z"/>
					<path style="fill:#FFFFFF;" d="M760.081-31.948c-1.061,0-1.922,0.86-1.922,1.921c0,1.061,0.86,1.922,1.922,1.922
						c1.061,0,1.922-0.86,1.922-1.922C762.003-31.087,761.142-31.948,760.081-31.948z"/>
					<path style="fill:#FFFFFF;" d="M781.444-28.105c1.061,0,1.921-0.86,1.921-1.922c0-1.061-0.86-1.921-1.921-1.921
						c-1.061,0-1.921,0.86-1.921,1.921C779.523-28.965,780.383-28.105,781.444-28.105z"/>
					<path style="fill:#FFFFFF;" d="M631.904-11.986c-1.061,0-1.922,0.86-1.922,1.921c0,1.061,0.86,1.922,1.922,1.922
						c1.061,0,1.921-0.86,1.921-1.922C633.826-11.126,632.966-11.986,631.904-11.986z"/>
					<path style="fill:#FFFFFF;" d="M653.267-11.986c-1.061,0-1.922,0.86-1.922,1.921c0,1.061,0.86,1.922,1.922,1.922
						c1.061,0,1.921-0.86,1.921-1.922C655.189-11.126,654.328-11.986,653.267-11.986z"/>
					<path style="fill:#FFFFFF;" d="M674.63-11.986c-1.061,0-1.922,0.86-1.922,1.921c0,1.061,0.86,1.922,1.922,1.922
						c1.061,0,1.921-0.86,1.921-1.922S675.691-11.986,674.63-11.986z"/>
					<path style="fill:#FFFFFF;" d="M695.993-11.986c-1.061,0-1.922,0.86-1.921,1.921c0,1.061,0.86,1.922,1.922,1.922
						c1.061,0,1.921-0.86,1.921-1.922C697.914-11.126,697.054-11.986,695.993-11.986z"/>
					<path style="fill:#FFFFFF;" d="M717.356-11.986c-1.061,0-1.921,0.86-1.921,1.921c0,1.061,0.86,1.922,1.921,1.922
						c1.061,0,1.922-0.86,1.922-1.922C719.277-11.126,718.417-11.986,717.356-11.986z"/>
					<path style="fill:#FFFFFF;" d="M738.718-11.986c-1.061,0-1.921,0.86-1.921,1.921c0,1.061,0.86,1.922,1.921,1.922
						c1.061,0,1.922-0.86,1.922-1.922C740.64-11.126,739.78-11.986,738.718-11.986z"/>
					<path style="fill:#FFFFFF;" d="M760.081-11.986c-1.061,0-1.922,0.86-1.922,1.921c0,1.061,0.86,1.922,1.922,1.922
						c1.061,0,1.922-0.86,1.922-1.922C762.003-11.126,761.142-11.986,760.081-11.986z"/>
					<path style="fill:#FFFFFF;" d="M781.444-11.986c-1.061,0-1.921,0.86-1.921,1.921c0,1.061,0.86,1.922,1.921,1.922
						s1.921-0.86,1.921-1.922C783.365-11.126,782.505-11.986,781.444-11.986z"/>
					<path style="fill:#FFFFFF;" d="M631.904,7.975c-1.061,0-1.922,0.86-1.922,1.922c0,1.061,0.86,1.921,1.922,1.921
						s1.921-0.86,1.921-1.921C633.826,8.836,632.966,7.975,631.904,7.975z"/>
					<path style="fill:#FFFFFF;" d="M653.267,7.975c-1.061,0-1.922,0.86-1.922,1.922c0,1.061,0.86,1.922,1.922,1.922
						c1.061,0,1.921-0.86,1.921-1.922C655.189,8.836,654.328,7.975,653.267,7.975z"/>
					<path style="fill:#FFFFFF;" d="M674.63,7.975c-1.061,0-1.922,0.86-1.922,1.922c0,1.061,0.86,1.922,1.922,1.922
						c1.061,0,1.921-0.86,1.921-1.922C676.552,8.836,675.691,7.975,674.63,7.975z"/>
					<path style="fill:#FFFFFF;" d="M695.993,7.975c-1.061,0-1.922,0.86-1.922,1.922c0,1.061,0.86,1.922,1.922,1.922
						c1.061,0,1.921-0.86,1.921-1.922C697.914,8.836,697.054,7.975,695.993,7.975z"/>
					<path style="fill:#FFFFFF;" d="M717.356,7.975c-1.061,0-1.921,0.86-1.921,1.921c0,1.061,0.86,1.922,1.921,1.922
						c1.061,0,1.922-0.86,1.922-1.922C719.277,8.836,718.417,7.975,717.356,7.975z"/>
					<path style="fill:#FFFFFF;" d="M738.719,7.975c-1.061,0-1.921,0.86-1.921,1.921c0,1.061,0.86,1.922,1.921,1.922
						c1.061,0,1.922-0.86,1.922-1.922C740.64,8.835,739.78,7.975,738.719,7.975z"/>
					
						<ellipse transform="matrix(0.0207 -0.9998 0.9998 0.0207 734.4386 769.6099)" style="fill:#FFFFFF;" cx="760.081" cy="9.897" rx="1.921" ry="1.922"/>
					<path style="fill:#FFFFFF;" d="M781.444,7.975c-1.061,0-1.921,0.86-1.921,1.921s0.86,1.921,1.921,1.921
						c1.061,0,1.921-0.86,1.921-1.922C783.366,8.835,782.505,7.975,781.444,7.975z"/>
					<path style="fill:#FFFFFF;" d="M631.905,27.937c-1.061,0-1.922,0.86-1.922,1.922c0,1.061,0.86,1.921,1.922,1.921
						c1.061,0,1.921-0.86,1.921-1.921C633.826,28.797,632.966,27.937,631.905,27.937z"/>
					<path style="fill:#FFFFFF;" d="M653.267,27.937c-1.061,0-1.922,0.86-1.922,1.922c0,1.061,0.861,1.921,1.922,1.921
						s1.921-0.86,1.921-1.921C655.189,28.797,654.329,27.937,653.267,27.937z"/>
					<path style="fill:#FFFFFF;" d="M674.63,27.937c-1.061,0-1.922,0.86-1.922,1.922c0,1.061,0.86,1.922,1.922,1.922
						c1.061,0,1.921-0.86,1.921-1.922C676.552,28.797,675.691,27.937,674.63,27.937z"/>
					<path style="fill:#FFFFFF;" d="M695.993,27.937c-1.061,0-1.922,0.86-1.922,1.922c0,1.061,0.86,1.922,1.922,1.922
						c1.061,0,1.921-0.86,1.921-1.922C697.914,28.797,697.054,27.937,695.993,27.937z"/>
					<path style="fill:#FFFFFF;" d="M717.356,27.937c-1.061,0-1.921,0.86-1.921,1.922c0,1.061,0.86,1.922,1.921,1.922
						c1.061,0,1.922-0.86,1.922-1.922C719.277,28.797,718.417,27.937,717.356,27.937z"/>
					<path style="fill:#FFFFFF;" d="M738.719,27.937c-1.061,0-1.921,0.86-1.921,1.922c0,1.061,0.86,1.921,1.921,1.921
						c1.061,0,1.922-0.86,1.922-1.921S739.78,27.937,738.719,27.937z"/>
					<path style="fill:#FFFFFF;" d="M760.081,27.937c-1.061,0-1.921,0.86-1.921,1.922c0,1.061,0.86,1.921,1.922,1.921
						c1.061,0,1.922-0.86,1.922-1.921C762.003,28.797,761.143,27.937,760.081,27.937z"/>
					<path style="fill:#FFFFFF;" d="M781.444,27.937c-1.061,0-1.921,0.86-1.921,1.922c0,1.061,0.86,1.921,1.921,1.921
						s1.921-0.86,1.921-1.921C783.366,28.797,782.505,27.937,781.444,27.937z"/>
					<path style="fill:#FFFFFF;" d="M631.905,47.898c-1.061,0-1.922,0.86-1.922,1.922c0,1.061,0.86,1.921,1.922,1.921
						c1.061,0,1.921-0.86,1.921-1.921C633.826,48.759,632.966,47.898,631.905,47.898z"/>
					<path style="fill:#FFFFFF;" d="M653.267,47.898c-1.061,0-1.922,0.86-1.922,1.922c0,1.061,0.86,1.921,1.922,1.921
						c1.061,0,1.921-0.86,1.921-1.921C655.189,48.759,654.329,47.898,653.267,47.898z"/>
					<path style="fill:#FFFFFF;" d="M674.63,47.898c-1.061,0-1.922,0.86-1.922,1.922c0,1.061,0.86,1.921,1.922,1.921
						c1.061,0,1.921-0.86,1.921-1.921C676.552,48.759,675.692,47.898,674.63,47.898z"/>
					<path style="fill:#FFFFFF;" d="M695.993,47.898c-1.061,0-1.922,0.86-1.922,1.921c0,1.061,0.86,1.922,1.922,1.922
						c1.061,0,1.921-0.86,1.921-1.922C697.915,48.759,697.054,47.898,695.993,47.898z"/>
					<path style="fill:#FFFFFF;" d="M717.356,47.898c-1.061,0-1.921,0.86-1.921,1.921c0,1.061,0.86,1.922,1.921,1.922
						c1.061,0,1.922-0.86,1.922-1.922C719.277,48.758,718.417,47.898,717.356,47.898z"/>
					<path style="fill:#FFFFFF;" d="M738.719,47.898c-1.061,0-1.921,0.86-1.921,1.921c0,1.061,0.86,1.922,1.921,1.922
						c1.061,0,1.922-0.86,1.922-1.922C740.64,48.758,739.78,47.898,738.719,47.898z"/>
					<path style="fill:#FFFFFF;" d="M760.081,47.898c-1.061,0-1.922,0.86-1.922,1.921c0,1.061,0.86,1.921,1.922,1.921
						c1.061,0,1.922-0.86,1.922-1.922C762.003,48.758,761.143,47.898,760.081,47.898z"/>
					
						<ellipse transform="matrix(0.9998 -0.0196 0.0196 0.9998 -0.8246 15.2869)" style="fill:#FFFFFF;" cx="781.444" cy="49.82" rx="1.921" ry="1.922"/>
					<path style="fill:#FFFFFF;" d="M631.905,67.86c-1.061,0-1.922,0.86-1.922,1.922c0,1.061,0.86,1.922,1.922,1.922
						s1.921-0.86,1.921-1.922C633.826,68.72,632.966,67.86,631.905,67.86z"/>
					<path style="fill:#FFFFFF;" d="M653.268,67.86c-1.061,0-1.922,0.86-1.922,1.921c0,1.061,0.86,1.922,1.922,1.922
						c1.061,0,1.921-0.86,1.921-1.922C655.189,68.72,654.329,67.86,653.268,67.86z"/>
					<path style="fill:#FFFFFF;" d="M674.63,67.86c-1.061,0-1.922,0.86-1.922,1.921c0,1.061,0.86,1.922,1.922,1.922
						c1.061,0,1.921-0.86,1.921-1.922C676.552,68.72,675.692,67.86,674.63,67.86z"/>
					<path style="fill:#FFFFFF;" d="M695.993,67.86c-1.061,0-1.922,0.86-1.922,1.921c0,1.061,0.86,1.922,1.922,1.922
						c1.061,0,1.921-0.86,1.921-1.922C697.915,68.72,697.055,67.86,695.993,67.86z"/>
					<path style="fill:#FFFFFF;" d="M717.356,67.86c-1.061,0-1.921,0.86-1.921,1.922c0,1.061,0.86,1.922,1.921,1.922
						c1.061,0,1.922-0.86,1.922-1.922C719.277,68.72,718.417,67.86,717.356,67.86z"/>
					<path style="fill:#FFFFFF;" d="M738.719,67.86c-1.061,0-1.921,0.86-1.921,1.922c0,1.061,0.86,1.922,1.921,1.922
						c1.061,0,1.922-0.86,1.922-1.922C740.64,68.72,739.78,67.86,738.719,67.86z"/>
					<path style="fill:#FFFFFF;" d="M760.082,67.86c-1.061,0-1.922,0.86-1.922,1.922c0,1.061,0.86,1.922,1.922,1.922
						c1.061,0,1.922-0.86,1.922-1.922C762.003,68.72,761.143,67.86,760.082,67.86z"/>
					<path style="fill:#FFFFFF;" d="M781.444,67.86c-1.061,0-1.921,0.86-1.921,1.921c0,1.061,0.86,1.922,1.921,1.922
						c1.061,0,1.921-0.86,1.921-1.922C783.366,68.72,782.506,67.86,781.444,67.86z"/>
					<path style="fill:#FFFFFF;" d="M631.905,87.821c-1.061,0-1.922,0.86-1.922,1.922c0,1.061,0.86,1.922,1.922,1.922
						c1.061,0,1.921-0.86,1.921-1.922C633.826,88.682,632.966,87.821,631.905,87.821z"/>
					<path style="fill:#FFFFFF;" d="M653.268,87.821c-1.061,0-1.922,0.86-1.922,1.922c0,1.061,0.861,1.922,1.922,1.922
						c1.061,0,1.921-0.86,1.921-1.922C655.189,88.682,654.329,87.821,653.268,87.821z"/>
					<path style="fill:#FFFFFF;" d="M674.631,87.821c-1.061,0-1.922,0.86-1.922,1.922c0,1.061,0.86,1.922,1.922,1.922
						c1.061,0,1.921-0.86,1.921-1.922C676.552,88.681,675.692,87.821,674.631,87.821z"/>
					<path style="fill:#FFFFFF;" d="M695.993,87.821c-1.061,0-1.922,0.86-1.922,1.922c0,1.061,0.86,1.922,1.922,1.922
						c1.061,0,1.921-0.86,1.921-1.922C697.915,88.681,697.055,87.821,695.993,87.821z"/>
					<path style="fill:#FFFFFF;" d="M717.356,87.821c-1.061,0-1.921,0.86-1.921,1.922c0,1.061,0.86,1.922,1.921,1.922
						c1.061,0,1.922-0.86,1.922-1.922C719.278,88.681,718.417,87.821,717.356,87.821z"/>
					<path style="fill:#FFFFFF;" d="M738.719,87.821c-1.061,0-1.921,0.86-1.921,1.922c0,1.061,0.86,1.921,1.921,1.921
						c1.061,0,1.922-0.86,1.922-1.922C740.641,88.681,739.78,87.821,738.719,87.821z"/>
					<path style="fill:#FFFFFF;" d="M760.082,87.821c-1.061,0-1.922,0.86-1.922,1.922c0,1.061,0.86,1.922,1.922,1.922
						c1.061,0,1.922-0.86,1.922-1.922C762.003,88.681,761.143,87.821,760.082,87.821z"/>
					
						<ellipse transform="matrix(0.9997 -0.0233 0.0233 0.9997 -1.8792 18.2353)" style="fill:#FFFFFF;" cx="781.445" cy="89.743" rx="1.921" ry="1.922"/>
					<path style="fill:#FFFFFF;" d="M631.905,107.783c-1.061,0-1.922,0.86-1.922,1.922c0,1.061,0.86,1.921,1.922,1.921
						c1.061,0,1.921-0.86,1.921-1.921C633.826,108.643,632.966,107.783,631.905,107.783z"/>
					<path style="fill:#FFFFFF;" d="M653.268,107.783c-1.061,0-1.922,0.86-1.922,1.922c0,1.061,0.86,1.921,1.922,1.921
						c1.061,0,1.921-0.86,1.921-1.921C655.189,108.643,654.329,107.783,653.268,107.783z"/>
					<path style="fill:#FFFFFF;" d="M674.631,107.783c-1.061,0-1.922,0.86-1.922,1.922c0,1.061,0.86,1.921,1.922,1.921
						c1.061,0,1.921-0.86,1.921-1.921C676.552,108.643,675.692,107.783,674.631,107.783z"/>
					<path style="fill:#FFFFFF;" d="M695.993,107.783c-1.061,0-1.922,0.86-1.922,1.922c0,1.061,0.86,1.921,1.922,1.921
						c1.061,0,1.921-0.86,1.921-1.921S697.055,107.783,695.993,107.783z"/>
					<path style="fill:#FFFFFF;" d="M717.356,107.783c-1.061,0-1.921,0.86-1.921,1.922c0,1.061,0.86,1.921,1.921,1.921
						c1.061,0,1.922-0.86,1.922-1.921C719.278,108.643,718.417,107.783,717.356,107.783z"/>
					<path style="fill:#FFFFFF;" d="M738.719,107.783c-1.061,0-1.921,0.86-1.921,1.922c0,1.061,0.86,1.921,1.921,1.921
						c1.061,0,1.922-0.86,1.922-1.921C740.641,108.643,739.78,107.783,738.719,107.783z"/>
					<path style="fill:#FFFFFF;" d="M760.082,107.783c-1.061,0-1.922,0.86-1.922,1.922c0,1.061,0.861,1.921,1.922,1.921
						c1.061,0,1.921-0.86,1.921-1.921C762.003,108.643,761.143,107.783,760.082,107.783z"/>
					<path style="fill:#FFFFFF;" d="M781.445,107.783c-1.061,0-1.921,0.86-1.921,1.922c0,1.061,0.86,1.921,1.921,1.921
						c1.061,0,1.921-0.86,1.921-1.921C783.366,108.643,782.506,107.783,781.445,107.783z"/>
					<path style="fill:#FFFFFF;" d="M631.905,127.744c-1.061,0-1.922,0.86-1.922,1.922c0,1.061,0.86,1.921,1.922,1.921
						s1.921-0.86,1.921-1.921C633.826,128.605,632.966,127.744,631.905,127.744z"/>
					<path style="fill:#FFFFFF;" d="M653.268,127.744c-1.061,0-1.922,0.86-1.922,1.922c0,1.061,0.86,1.922,1.922,1.922
						c1.061,0,1.921-0.86,1.921-1.922C655.189,128.605,654.329,127.744,653.268,127.744z"/>
					<path style="fill:#FFFFFF;" d="M674.631,127.744c-1.061,0-1.922,0.86-1.922,1.922c0,1.061,0.86,1.922,1.922,1.922
						c1.061,0,1.921-0.86,1.921-1.922C676.552,128.605,675.692,127.744,674.631,127.744z"/>
					<path style="fill:#FFFFFF;" d="M695.994,127.744c-1.061,0-1.922,0.86-1.922,1.922c0,1.061,0.86,1.922,1.922,1.922
						c1.061,0,1.921-0.86,1.921-1.922C697.915,128.605,697.055,127.744,695.994,127.744z"/>
					<path style="fill:#FFFFFF;" d="M717.356,127.744c-1.061,0-1.921,0.861-1.921,1.922c0,1.061,0.86,1.921,1.921,1.921
						c1.061,0,1.922-0.86,1.922-1.921C719.278,128.605,718.417,127.744,717.356,127.744z"/>
					<path style="fill:#FFFFFF;" d="M738.719,127.744c-1.061,0-1.921,0.86-1.921,1.922s0.86,1.921,1.921,1.921
						c1.061,0,1.922-0.86,1.922-1.921S739.78,127.744,738.719,127.744z"/>
					<path style="fill:#FFFFFF;" d="M760.082,127.744c-1.061,0-1.922,0.86-1.922,1.922s0.861,1.921,1.922,1.921
						c1.061,0,1.922-0.86,1.922-1.921S761.143,127.744,760.082,127.744z"/>
					<path style="fill:#FFFFFF;" d="M781.445,127.744c-1.061,0-1.921,0.861-1.921,1.922c0,1.061,0.86,1.921,1.921,1.921
						c1.061,0,1.921-0.86,1.921-1.921C783.366,128.604,782.506,127.744,781.445,127.744z"/>
				</g>
				<g style="opacity:0.4;">
					<path style="fill:#FFFFFF;" d="M77.533,428.173c-1.315,0-2.382,1.066-2.382,2.382c0,1.315,1.067,2.382,2.382,2.382
						s2.382-1.067,2.382-2.382C79.915,429.239,78.848,428.173,77.533,428.173z"/>
					<path style="fill:#FFFFFF;" d="M104.013,428.173c-1.315,0-2.382,1.066-2.382,2.382c0,1.315,1.066,2.382,2.382,2.382
						s2.382-1.067,2.382-2.382C106.395,429.239,105.329,428.173,104.013,428.173z"/>
					<path style="fill:#FFFFFF;" d="M130.494,428.173c-1.316,0-2.382,1.066-2.382,2.382c0,1.315,1.066,2.382,2.382,2.382
						c1.315,0,2.382-1.067,2.382-2.382C132.875,429.239,131.809,428.173,130.494,428.173z"/>
					<path style="fill:#FFFFFF;" d="M156.974,428.173c-1.316,0-2.382,1.066-2.382,2.382c0,1.315,1.066,2.382,2.382,2.382
						c1.315,0,2.382-1.067,2.382-2.382C159.356,429.239,158.29,428.173,156.974,428.173z"/>
					<path style="fill:#FFFFFF;" d="M183.454,428.173c-1.315,0-2.382,1.066-2.382,2.382c0,1.315,1.066,2.382,2.382,2.382
						c1.315,0,2.382-1.067,2.382-2.382C185.836,429.239,184.77,428.173,183.454,428.173z"/>
					<path style="fill:#FFFFFF;" d="M209.935,428.173c-1.315,0-2.382,1.066-2.382,2.382c0,1.315,1.066,2.382,2.382,2.382
						c1.316,0,2.382-1.067,2.382-2.382C212.317,429.239,211.25,428.173,209.935,428.173z"/>
					<path style="fill:#FFFFFF;" d="M236.415,428.173c-1.315,0-2.382,1.066-2.382,2.382c0,1.315,1.066,2.382,2.382,2.382
						s2.382-1.067,2.382-2.382C238.797,429.239,237.73,428.173,236.415,428.173z"/>
					<path style="fill:#FFFFFF;" d="M262.895,432.936c1.315,0,2.382-1.067,2.382-2.382c0-1.315-1.066-2.382-2.382-2.382
						s-2.382,1.066-2.382,2.382C260.514,431.87,261.58,432.936,262.895,432.936z"/>
					<path style="fill:#FFFFFF;" d="M77.533,452.916c-1.315,0-2.382,1.066-2.382,2.382c0,1.315,1.067,2.382,2.382,2.382
						s2.382-1.066,2.382-2.382C79.915,453.982,78.848,452.916,77.533,452.916z"/>
					<path style="fill:#FFFFFF;" d="M104.013,452.916c-1.315,0-2.382,1.066-2.382,2.382c0,1.315,1.066,2.382,2.382,2.382
						s2.382-1.066,2.382-2.382C106.395,453.982,105.329,452.916,104.013,452.916z"/>
					<path style="fill:#FFFFFF;" d="M130.494,452.916c-1.316,0-2.382,1.066-2.382,2.382c0,1.315,1.066,2.382,2.382,2.382
						c1.315,0,2.382-1.066,2.382-2.382C132.875,453.982,131.809,452.916,130.494,452.916z"/>
					<path style="fill:#FFFFFF;" d="M156.974,452.916c-1.316,0-2.382,1.066-2.382,2.382c0,1.315,1.066,2.382,2.382,2.382
						c1.315,0,2.382-1.066,2.382-2.382C159.356,453.982,158.29,452.916,156.974,452.916z"/>
					<path style="fill:#FFFFFF;" d="M183.454,452.916c-1.315,0-2.382,1.066-2.382,2.382c0,1.315,1.066,2.382,2.382,2.382
						c1.315,0,2.382-1.066,2.382-2.382C185.836,453.982,184.77,452.916,183.454,452.916z"/>
					<path style="fill:#FFFFFF;" d="M209.935,452.916c-1.315,0-2.382,1.066-2.382,2.382c0,1.315,1.066,2.382,2.382,2.382
						c1.316,0,2.382-1.066,2.382-2.382C212.317,453.982,211.25,452.916,209.935,452.916z"/>
					<path style="fill:#FFFFFF;" d="M236.415,452.916c-1.315,0-2.382,1.066-2.382,2.382c0,1.315,1.066,2.382,2.382,2.382
						s2.382-1.066,2.382-2.382C238.797,453.982,237.73,452.916,236.415,452.916z"/>
					<path style="fill:#FFFFFF;" d="M262.895,452.916c-1.315,0-2.382,1.066-2.382,2.382c0,1.315,1.066,2.382,2.382,2.382
						s2.382-1.066,2.382-2.382C265.277,453.982,264.211,452.916,262.895,452.916z"/>
					<path style="fill:#FFFFFF;" d="M77.533,477.659c-1.315,0-2.382,1.066-2.382,2.382c0,1.316,1.067,2.382,2.382,2.382
						s2.382-1.066,2.382-2.382C79.915,478.725,78.848,477.659,77.533,477.659z"/>
					<path style="fill:#FFFFFF;" d="M104.013,477.659c-1.315,0-2.382,1.066-2.382,2.382c0,1.316,1.066,2.382,2.382,2.382
						s2.382-1.066,2.382-2.382C106.395,478.725,105.329,477.659,104.013,477.659z"/>
					<path style="fill:#FFFFFF;" d="M130.494,477.659c-1.316,0-2.382,1.066-2.382,2.382c0,1.316,1.066,2.382,2.382,2.382
						c1.315,0,2.382-1.066,2.382-2.382C132.875,478.725,131.809,477.659,130.494,477.659z"/>
					<path style="fill:#FFFFFF;" d="M156.974,477.659c-1.316,0-2.382,1.066-2.382,2.382c0,1.316,1.066,2.382,2.382,2.382
						c1.315,0,2.382-1.066,2.382-2.382C159.356,478.725,158.29,477.659,156.974,477.659z"/>
					<path style="fill:#FFFFFF;" d="M183.454,477.659c-1.315,0-2.382,1.066-2.382,2.382c0,1.316,1.066,2.382,2.382,2.382
						c1.315,0,2.382-1.066,2.382-2.382C185.836,478.725,184.77,477.659,183.454,477.659z"/>
					<path style="fill:#FFFFFF;" d="M209.935,477.659c-1.315,0-2.382,1.066-2.382,2.382c0,1.316,1.066,2.382,2.382,2.382
						c1.316,0,2.382-1.066,2.382-2.382C212.317,478.725,211.25,477.659,209.935,477.659z"/>
					<path style="fill:#FFFFFF;" d="M236.415,477.659c-1.315,0-2.382,1.066-2.382,2.382c0,1.316,1.066,2.382,2.382,2.382
						s2.382-1.066,2.382-2.382C238.797,478.725,237.73,477.659,236.415,477.659z"/>
					<path style="fill:#FFFFFF;" d="M262.895,477.659c-1.315,0-2.382,1.066-2.382,2.382c0,1.316,1.066,2.382,2.382,2.382
						s2.382-1.066,2.382-2.382C265.277,478.725,264.211,477.659,262.895,477.659z"/>
					<path style="fill:#FFFFFF;" d="M77.533,502.402c-1.315,0-2.382,1.066-2.382,2.382c0,1.315,1.067,2.382,2.382,2.382
						s2.382-1.066,2.382-2.382C79.915,503.469,78.848,502.402,77.533,502.402z"/>
					<path style="fill:#FFFFFF;" d="M104.013,502.402c-1.315,0-2.382,1.066-2.382,2.382c0,1.315,1.066,2.382,2.382,2.382
						s2.382-1.066,2.382-2.382C106.395,503.469,105.329,502.402,104.013,502.402z"/>
					<path style="fill:#FFFFFF;" d="M130.494,502.402c-1.316,0-2.382,1.066-2.382,2.382c0,1.315,1.066,2.382,2.382,2.382
						c1.315,0,2.382-1.066,2.382-2.382C132.875,503.469,131.809,502.402,130.494,502.402z"/>
					<path style="fill:#FFFFFF;" d="M156.974,502.402c-1.316,0-2.382,1.066-2.382,2.382c0,1.315,1.066,2.382,2.382,2.382
						c1.315,0,2.382-1.066,2.382-2.382C159.356,503.469,158.29,502.402,156.974,502.402z"/>
					<path style="fill:#FFFFFF;" d="M183.454,502.402c-1.315,0-2.382,1.066-2.382,2.382c0,1.315,1.066,2.382,2.382,2.382
						c1.315,0,2.382-1.066,2.382-2.382C185.836,503.469,184.77,502.402,183.454,502.402z"/>
					<path style="fill:#FFFFFF;" d="M209.935,502.402c-1.315,0-2.382,1.066-2.382,2.382c0,1.315,1.066,2.382,2.382,2.382
						c1.316,0,2.382-1.066,2.382-2.382C212.317,503.469,211.25,502.402,209.935,502.402z"/>
					<path style="fill:#FFFFFF;" d="M236.415,502.402c-1.315,0-2.382,1.066-2.382,2.382c0,1.315,1.066,2.382,2.382,2.382
						s2.382-1.066,2.382-2.382C238.797,503.469,237.73,502.402,236.415,502.402z"/>
					<path style="fill:#FFFFFF;" d="M262.895,502.402c-1.315,0-2.382,1.066-2.382,2.382c0,1.315,1.066,2.382,2.382,2.382
						s2.382-1.066,2.382-2.382C265.277,503.469,264.211,502.402,262.895,502.402z"/>
					<path style="fill:#FFFFFF;" d="M77.533,527.146c-1.315,0-2.382,1.066-2.382,2.382c0,1.315,1.067,2.382,2.382,2.382
						s2.382-1.066,2.382-2.382C79.915,528.212,78.848,527.146,77.533,527.146z"/>
					<path style="fill:#FFFFFF;" d="M104.013,527.146c-1.315,0-2.382,1.066-2.382,2.382c0,1.315,1.066,2.382,2.382,2.382
						s2.382-1.066,2.382-2.382C106.395,528.212,105.329,527.146,104.013,527.146z"/>
					<path style="fill:#FFFFFF;" d="M130.494,527.146c-1.316,0-2.382,1.066-2.382,2.382c0,1.315,1.066,2.382,2.382,2.382
						c1.315,0,2.382-1.066,2.382-2.382C132.875,528.212,131.809,527.146,130.494,527.146z"/>
					<path style="fill:#FFFFFF;" d="M156.974,527.146c-1.316,0-2.382,1.066-2.382,2.382c0,1.315,1.066,2.382,2.382,2.382
						c1.315,0,2.382-1.066,2.382-2.382C159.356,528.212,158.29,527.146,156.974,527.146z"/>
					<path style="fill:#FFFFFF;" d="M183.454,527.146c-1.315,0-2.382,1.066-2.382,2.382c0,1.315,1.066,2.382,2.382,2.382
						c1.315,0,2.382-1.066,2.382-2.382C185.836,528.212,184.77,527.146,183.454,527.146z"/>
					<path style="fill:#FFFFFF;" d="M209.935,527.146c-1.315,0-2.382,1.066-2.382,2.382c0,1.315,1.066,2.382,2.382,2.382
						c1.316,0,2.382-1.066,2.382-2.382C212.317,528.212,211.25,527.146,209.935,527.146z"/>
					<path style="fill:#FFFFFF;" d="M236.415,527.146c-1.315,0-2.382,1.066-2.382,2.382c0,1.315,1.066,2.382,2.382,2.382
						s2.382-1.066,2.382-2.382C238.797,528.212,237.73,527.146,236.415,527.146z"/>
					<path style="fill:#FFFFFF;" d="M262.895,527.146c-1.315,0-2.382,1.066-2.382,2.382c0,1.315,1.066,2.382,2.382,2.382
						s2.382-1.066,2.382-2.382C265.277,528.212,264.211,527.146,262.895,527.146z"/>
					<path style="fill:#FFFFFF;" d="M77.533,551.889c-1.315,0-2.382,1.066-2.382,2.382c0,1.315,1.067,2.382,2.382,2.382
						s2.382-1.066,2.382-2.382C79.915,552.955,78.848,551.889,77.533,551.889z"/>
					<path style="fill:#FFFFFF;" d="M104.013,551.889c-1.315,0-2.382,1.066-2.382,2.382c0,1.315,1.066,2.382,2.382,2.382
						s2.382-1.066,2.382-2.382C106.395,552.955,105.329,551.889,104.013,551.889z"/>
					<path style="fill:#FFFFFF;" d="M130.494,551.889c-1.316,0-2.382,1.066-2.382,2.382c0,1.315,1.066,2.382,2.382,2.382
						c1.315,0,2.382-1.066,2.382-2.382C132.875,552.955,131.809,551.889,130.494,551.889z"/>
					<path style="fill:#FFFFFF;" d="M156.974,551.889c-1.316,0-2.382,1.066-2.382,2.382c0,1.315,1.066,2.382,2.382,2.382
						c1.315,0,2.382-1.066,2.382-2.382C159.356,552.955,158.29,551.889,156.974,551.889z"/>
					<path style="fill:#FFFFFF;" d="M183.454,551.889c-1.315,0-2.382,1.066-2.382,2.382c0,1.315,1.066,2.382,2.382,2.382
						c1.315,0,2.382-1.066,2.382-2.382C185.836,552.955,184.77,551.889,183.454,551.889z"/>
					<path style="fill:#FFFFFF;" d="M209.935,551.889c-1.315,0-2.382,1.066-2.382,2.382c0,1.315,1.066,2.382,2.382,2.382
						c1.316,0,2.382-1.066,2.382-2.382C212.317,552.955,211.25,551.889,209.935,551.889z"/>
					<path style="fill:#FFFFFF;" d="M236.415,551.889c-1.315,0-2.382,1.066-2.382,2.382c0,1.315,1.066,2.382,2.382,2.382
						s2.382-1.066,2.382-2.382C238.797,552.955,237.73,551.889,236.415,551.889z"/>
					<path style="fill:#FFFFFF;" d="M262.895,551.889c-1.315,0-2.382,1.066-2.382,2.382c0,1.315,1.066,2.382,2.382,2.382
						s2.382-1.066,2.382-2.382C265.277,552.955,264.211,551.889,262.895,551.889z"/>
					<path style="fill:#FFFFFF;" d="M77.533,576.632c-1.315,0-2.382,1.066-2.382,2.382c0,1.315,1.067,2.382,2.382,2.382
						s2.382-1.066,2.382-2.382C79.915,577.698,78.848,576.632,77.533,576.632z"/>
					<path style="fill:#FFFFFF;" d="M104.013,576.632c-1.315,0-2.382,1.066-2.382,2.382c0,1.315,1.066,2.382,2.382,2.382
						s2.382-1.066,2.382-2.382C106.395,577.698,105.329,576.632,104.013,576.632z"/>
					<path style="fill:#FFFFFF;" d="M130.494,576.632c-1.316,0-2.382,1.066-2.382,2.382c0,1.315,1.066,2.382,2.382,2.382
						c1.315,0,2.382-1.066,2.382-2.382C132.875,577.698,131.809,576.632,130.494,576.632z"/>
					<path style="fill:#FFFFFF;" d="M156.974,576.632c-1.316,0-2.382,1.066-2.382,2.382c0,1.315,1.066,2.382,2.382,2.382
						c1.315,0,2.382-1.066,2.382-2.382C159.356,577.698,158.29,576.632,156.974,576.632z"/>
					<path style="fill:#FFFFFF;" d="M183.454,576.632c-1.315,0-2.382,1.066-2.382,2.382c0,1.315,1.066,2.382,2.382,2.382
						c1.315,0,2.382-1.066,2.382-2.382C185.836,577.698,184.77,576.632,183.454,576.632z"/>
					<path style="fill:#FFFFFF;" d="M209.935,576.632c-1.315,0-2.382,1.066-2.382,2.382c0,1.315,1.066,2.382,2.382,2.382
						c1.316,0,2.382-1.066,2.382-2.382C212.317,577.698,211.25,576.632,209.935,576.632z"/>
					<path style="fill:#FFFFFF;" d="M236.415,576.632c-1.315,0-2.382,1.066-2.382,2.382c0,1.315,1.066,2.382,2.382,2.382
						s2.382-1.066,2.382-2.382C238.797,577.698,237.73,576.632,236.415,576.632z"/>
					<path style="fill:#FFFFFF;" d="M262.895,576.632c-1.315,0-2.382,1.066-2.382,2.382c0,1.315,1.066,2.382,2.382,2.382
						s2.382-1.066,2.382-2.382C265.277,577.698,264.211,576.632,262.895,576.632z"/>
					<path style="fill:#FFFFFF;" d="M77.533,601.375c-1.315,0-2.382,1.066-2.382,2.382c0,1.315,1.067,2.382,2.382,2.382
						s2.382-1.066,2.382-2.382C79.915,602.442,78.848,601.375,77.533,601.375z"/>
					<path style="fill:#FFFFFF;" d="M104.013,601.375c-1.315,0-2.382,1.066-2.382,2.382c0,1.315,1.066,2.382,2.382,2.382
						s2.382-1.066,2.382-2.382C106.395,602.442,105.329,601.375,104.013,601.375z"/>
					<path style="fill:#FFFFFF;" d="M130.494,601.375c-1.316,0-2.382,1.066-2.382,2.382c0,1.315,1.066,2.382,2.382,2.382
						c1.315,0,2.382-1.066,2.382-2.382C132.875,602.442,131.809,601.375,130.494,601.375z"/>
					<path style="fill:#FFFFFF;" d="M156.974,601.375c-1.316,0-2.382,1.066-2.382,2.382c0,1.315,1.066,2.382,2.382,2.382
						c1.315,0,2.382-1.066,2.382-2.382C159.356,602.442,158.29,601.375,156.974,601.375z"/>
					<path style="fill:#FFFFFF;" d="M183.454,601.375c-1.315,0-2.382,1.066-2.382,2.382c0,1.315,1.066,2.382,2.382,2.382
						c1.315,0,2.382-1.066,2.382-2.382C185.836,602.442,184.77,601.375,183.454,601.375z"/>
					<path style="fill:#FFFFFF;" d="M209.935,601.375c-1.315,0-2.382,1.066-2.382,2.382c0,1.315,1.066,2.382,2.382,2.382
						c1.316,0,2.382-1.066,2.382-2.382C212.317,602.442,211.25,601.375,209.935,601.375z"/>
					<path style="fill:#FFFFFF;" d="M236.415,601.375c-1.315,0-2.382,1.066-2.382,2.382c0,1.315,1.066,2.382,2.382,2.382
						s2.382-1.066,2.382-2.382C238.797,602.442,237.73,601.375,236.415,601.375z"/>
					<path style="fill:#FFFFFF;" d="M262.895,601.375c-1.315,0-2.382,1.066-2.382,2.382c0,1.315,1.066,2.382,2.382,2.382
						s2.382-1.066,2.382-2.382C265.277,602.442,264.211,601.375,262.895,601.375z"/>
					<path style="fill:#FFFFFF;" d="M77.533,626.118c-1.315,0-2.382,1.067-2.382,2.382c0,1.315,1.067,2.382,2.382,2.382
						s2.382-1.066,2.382-2.382C79.915,627.185,78.848,626.118,77.533,626.118z"/>
					<path style="fill:#FFFFFF;" d="M104.013,626.118c-1.315,0-2.382,1.067-2.382,2.382c0,1.315,1.066,2.382,2.382,2.382
						s2.382-1.066,2.382-2.382C106.395,627.185,105.329,626.118,104.013,626.118z"/>
					<path style="fill:#FFFFFF;" d="M130.494,626.118c-1.316,0-2.382,1.067-2.382,2.382c0,1.315,1.066,2.382,2.382,2.382
						c1.315,0,2.382-1.066,2.382-2.382C132.875,627.185,131.809,626.118,130.494,626.118z"/>
					<path style="fill:#FFFFFF;" d="M156.974,626.118c-1.316,0-2.382,1.067-2.382,2.382c0,1.315,1.066,2.382,2.382,2.382
						c1.315,0,2.382-1.066,2.382-2.382C159.356,627.185,158.29,626.118,156.974,626.118z"/>
					<path style="fill:#FFFFFF;" d="M183.454,626.118c-1.315,0-2.382,1.067-2.382,2.382c0,1.315,1.066,2.382,2.382,2.382
						c1.315,0,2.382-1.066,2.382-2.382C185.836,627.185,184.77,626.118,183.454,626.118z"/>
					<path style="fill:#FFFFFF;" d="M209.935,626.118c-1.315,0-2.382,1.067-2.382,2.382c0,1.315,1.066,2.382,2.382,2.382
						c1.316,0,2.382-1.066,2.382-2.382C212.317,627.185,211.25,626.118,209.935,626.118z"/>
					<path style="fill:#FFFFFF;" d="M236.415,626.118c-1.315,0-2.382,1.067-2.382,2.382c0,1.315,1.066,2.382,2.382,2.382
						s2.382-1.066,2.382-2.382C238.797,627.185,237.73,626.118,236.415,626.118z"/>
					<path style="fill:#FFFFFF;" d="M262.895,626.118c-1.315,0-2.382,1.067-2.382,2.382c0,1.315,1.066,2.382,2.382,2.382
						s2.382-1.066,2.382-2.382C265.277,627.185,264.211,626.118,262.895,626.118z"/>
				</g>
				<circle style="opacity:0.4;fill:none;stroke:#FFFFFF;stroke-width:5;stroke-miterlimit:10;" cx="-0.747" cy="500" r="133.931"/>
				
					<circle style="opacity:0.4;fill:none;stroke:#FFFFFF;stroke-width:5;stroke-miterlimit:10;" cx="562.918" cy="108.37" r="21.398"/>
			</g>
		</g>
		<g style="opacity:0.4;">
			<path style="fill:#FFFFFF;" d="M330.376,160.187c-1.061,0-1.922,0.86-1.922,1.921c0,1.061,0.86,1.922,1.922,1.922
				c1.061,0,1.921-0.86,1.921-1.922C332.297,161.048,331.437,160.187,330.376,160.187z"/>
			<path style="fill:#FFFFFF;" d="M351.738,160.187c-1.061,0-1.922,0.86-1.922,1.921c0,1.061,0.861,1.922,1.922,1.922
				c1.061,0,1.921-0.86,1.921-1.922C353.66,161.048,352.8,160.187,351.738,160.187z"/>
			<path style="fill:#FFFFFF;" d="M373.101,160.187c-1.061,0-1.922,0.86-1.922,1.921c0,1.061,0.86,1.922,1.922,1.922
				c1.061,0,1.921-0.86,1.921-1.922C375.023,161.048,374.163,160.187,373.101,160.187z"/>
			<path style="fill:#FFFFFF;" d="M394.464,160.187c-1.061,0-1.922,0.86-1.922,1.922c0,1.061,0.86,1.922,1.922,1.922
				c1.061,0,1.921-0.86,1.921-1.922S395.525,160.187,394.464,160.187z"/>
			<path style="fill:#FFFFFF;" d="M415.827,160.187c-1.061,0-1.921,0.86-1.921,1.922s0.86,1.922,1.921,1.922
				c1.061,0,1.922-0.86,1.922-1.922C417.748,161.048,416.888,160.187,415.827,160.187z"/>
			<path style="fill:#FFFFFF;" d="M437.19,160.187c-1.061,0-1.921,0.86-1.921,1.922s0.86,1.922,1.921,1.922
				c1.061,0,1.922-0.861,1.922-1.922C439.111,161.048,438.251,160.187,437.19,160.187z"/>
			<path style="fill:#FFFFFF;" d="M458.552,160.187c-1.061,0-1.922,0.86-1.921,1.921c0,1.061,0.86,1.922,1.922,1.922
				c1.061,0,1.922-0.861,1.922-1.922C460.474,161.048,459.614,160.187,458.552,160.187z"/>
			<path style="fill:#FFFFFF;" d="M479.915,164.03c1.061,0,1.921-0.86,1.921-1.922s-0.86-1.921-1.921-1.921
				c-1.061,0-1.921,0.86-1.921,1.921S478.854,164.03,479.915,164.03z"/>
			<path style="fill:#FFFFFF;" d="M330.376,180.149c-1.061,0-1.922,0.86-1.922,1.921c0,1.061,0.86,1.922,1.922,1.922
				c1.061,0,1.921-0.86,1.921-1.922C332.297,181.009,331.437,180.149,330.376,180.149z"/>
			<path style="fill:#FFFFFF;" d="M351.739,180.149c-1.061,0-1.922,0.86-1.922,1.921c0,1.061,0.861,1.922,1.922,1.922
				c1.061,0,1.921-0.86,1.921-1.922C353.66,181.009,352.8,180.149,351.739,180.149z"/>
			<path style="fill:#FFFFFF;" d="M373.102,180.149c-1.061,0-1.922,0.86-1.922,1.921c0,1.061,0.86,1.922,1.922,1.922
				c1.061,0,1.921-0.86,1.921-1.922C375.023,181.009,374.163,180.149,373.102,180.149z"/>
			<path style="fill:#FFFFFF;" d="M394.464,180.149c-1.061,0-1.922,0.86-1.922,1.921c0,1.061,0.86,1.922,1.922,1.922
				c1.061,0,1.921-0.86,1.921-1.922C396.386,181.009,395.525,180.149,394.464,180.149z"/>
			<path style="fill:#FFFFFF;" d="M415.827,180.149c-1.061,0-1.921,0.86-1.921,1.921c0,1.061,0.86,1.922,1.921,1.922
				c1.061,0,1.922-0.86,1.922-1.922C417.749,181.009,416.888,180.149,415.827,180.149z"/>
			<path style="fill:#FFFFFF;" d="M437.19,180.149c-1.061,0-1.921,0.86-1.921,1.921c0,1.061,0.86,1.922,1.921,1.922
				c1.061,0,1.922-0.86,1.922-1.922C439.111,181.009,438.251,180.149,437.19,180.149z"/>
			<path style="fill:#FFFFFF;" d="M458.553,180.149c-1.061,0-1.922,0.86-1.922,1.921c0,1.061,0.86,1.922,1.922,1.922
				c1.061,0,1.922-0.86,1.921-1.922C460.474,181.009,459.614,180.149,458.553,180.149z"/>
			<path style="fill:#FFFFFF;" d="M479.915,180.149c-1.061,0-1.921,0.86-1.921,1.921c0,1.061,0.86,1.922,1.921,1.922
				c1.061,0,1.921-0.86,1.921-1.922C481.837,181.009,480.977,180.149,479.915,180.149z"/>
			<path style="fill:#FFFFFF;" d="M330.376,200.11c-1.061,0-1.922,0.86-1.922,1.921c0,1.061,0.86,1.921,1.922,1.921
				c1.061,0,1.921-0.86,1.921-1.921C332.297,200.971,331.437,200.11,330.376,200.11z"/>
			<path style="fill:#FFFFFF;" d="M351.739,200.11c-1.061,0-1.922,0.86-1.922,1.921c0,1.061,0.86,1.921,1.922,1.921
				c1.061,0,1.921-0.86,1.921-1.921C353.66,200.971,352.8,200.11,351.739,200.11z"/>
			<path style="fill:#FFFFFF;" d="M373.102,200.11c-1.061,0-1.922,0.86-1.922,1.921c0,1.061,0.86,1.922,1.922,1.922
				c1.061,0,1.921-0.86,1.921-1.922C375.023,200.971,374.163,200.11,373.102,200.11z"/>
			<path style="fill:#FFFFFF;" d="M394.464,200.11c-1.061,0-1.922,0.86-1.922,1.921c0,1.061,0.86,1.922,1.922,1.922
				c1.061,0,1.921-0.86,1.921-1.922C396.386,200.971,395.526,200.11,394.464,200.11z"/>
			<path style="fill:#FFFFFF;" d="M415.827,200.11c-1.061,0-1.921,0.86-1.921,1.921c0,1.061,0.86,1.922,1.921,1.922
				c1.061,0,1.922-0.86,1.922-1.922C417.749,200.971,416.888,200.11,415.827,200.11z"/>
			<path style="fill:#FFFFFF;" d="M437.19,200.11c-1.061,0-1.921,0.86-1.921,1.921c0,1.061,0.86,1.921,1.921,1.921
				c1.061,0,1.922-0.86,1.922-1.921C439.111,200.971,438.251,200.11,437.19,200.11z"/>
			<path style="fill:#FFFFFF;" d="M458.553,200.11c-1.061,0-1.922,0.86-1.922,1.921c0,1.061,0.86,1.921,1.922,1.921
				c1.061,0,1.922-0.86,1.922-1.921C460.474,200.97,459.614,200.11,458.553,200.11z"/>
			
				<ellipse transform="matrix(0.9999 -0.0131 0.0131 0.9999 -2.605 6.3031)" style="fill:#FFFFFF;" cx="479.916" cy="202.032" rx="1.921" ry="1.921"/>
			<path style="fill:#FFFFFF;" d="M330.376,220.072c-1.061,0-1.922,0.86-1.922,1.922c0,1.061,0.86,1.921,1.922,1.921
				c1.061,0,1.921-0.86,1.921-1.921C332.297,220.932,331.437,220.072,330.376,220.072z"/>
			<path style="fill:#FFFFFF;" d="M351.739,220.072c-1.061,0-1.922,0.86-1.922,1.922c0,1.061,0.861,1.921,1.922,1.921
				c1.061,0,1.921-0.86,1.921-1.921C353.66,220.932,352.8,220.072,351.739,220.072z"/>
			<path style="fill:#FFFFFF;" d="M373.102,220.072c-1.061,0-1.922,0.86-1.922,1.922c0,1.061,0.86,1.921,1.922,1.921
				c1.061,0,1.921-0.86,1.921-1.921C375.023,220.932,374.163,220.072,373.102,220.072z"/>
			<path style="fill:#FFFFFF;" d="M394.464,220.072c-1.061,0-1.922,0.86-1.922,1.922c0,1.061,0.86,1.922,1.922,1.922
				c1.061,0,1.921-0.86,1.921-1.922C396.386,220.932,395.526,220.072,394.464,220.072z"/>
			<path style="fill:#FFFFFF;" d="M415.827,220.072c-1.061,0-1.921,0.86-1.921,1.922c0,1.061,0.86,1.922,1.921,1.922
				c1.061,0,1.922-0.86,1.922-1.922C417.749,220.932,416.888,220.072,415.827,220.072z"/>
			<path style="fill:#FFFFFF;" d="M437.19,220.072c-1.061,0-1.921,0.86-1.921,1.922c0,1.061,0.86,1.922,1.921,1.922
				c1.061,0,1.922-0.86,1.922-1.922C439.112,220.932,438.251,220.072,437.19,220.072z"/>
			<path style="fill:#FFFFFF;" d="M458.553,220.072c-1.061,0-1.922,0.86-1.922,1.922c0,1.061,0.861,1.921,1.922,1.921
				c1.061,0,1.922-0.86,1.922-1.921C460.474,220.932,459.614,220.072,458.553,220.072z"/>
			<path style="fill:#FFFFFF;" d="M479.916,220.072c-1.061,0-1.921,0.86-1.921,1.922c0,1.061,0.86,1.921,1.921,1.921
				c1.061,0,1.921-0.86,1.921-1.921C481.837,220.932,480.977,220.072,479.916,220.072z"/>
			<path style="fill:#FFFFFF;" d="M330.376,240.033c-1.061,0-1.922,0.86-1.922,1.922c0,1.061,0.86,1.921,1.922,1.921
				c1.061,0,1.921-0.86,1.921-1.921C332.297,240.894,331.437,240.033,330.376,240.033z"/>
			<path style="fill:#FFFFFF;" d="M351.739,240.033c-1.061,0-1.922,0.86-1.922,1.921c0,1.061,0.861,1.922,1.922,1.922
				c1.061,0,1.921-0.86,1.921-1.922S352.8,240.033,351.739,240.033z"/>
			<path style="fill:#FFFFFF;" d="M373.102,240.033c-1.061,0-1.922,0.86-1.922,1.921s0.86,1.922,1.922,1.922
				c1.061,0,1.921-0.86,1.921-1.922S374.163,240.033,373.102,240.033z"/>
			<path style="fill:#FFFFFF;" d="M394.465,240.033c-1.061,0-1.922,0.86-1.922,1.921s0.86,1.922,1.922,1.922
				c1.061,0,1.921-0.86,1.921-1.922C396.386,240.893,395.526,240.033,394.465,240.033z"/>
			<path style="fill:#FFFFFF;" d="M415.827,240.033c-1.061,0-1.921,0.86-1.921,1.922c0,1.061,0.86,1.921,1.921,1.921
				c1.061,0,1.921-0.86,1.921-1.921C417.749,240.893,416.888,240.033,415.827,240.033z"/>
			<path style="fill:#FFFFFF;" d="M437.19,240.033c-1.061,0-1.921,0.86-1.921,1.922c0,1.061,0.86,1.921,1.921,1.921
				c1.061,0,1.922-0.86,1.922-1.921C439.112,240.893,438.251,240.033,437.19,240.033z"/>
			<circle style="fill:#FFFFFF;" cx="458.553" cy="241.955" r="1.922"/>
			<path style="fill:#FFFFFF;" d="M479.916,240.033c-1.061,0-1.921,0.86-1.921,1.922c0,1.061,0.86,1.921,1.921,1.921
				c1.061,0,1.921-0.86,1.921-1.922C481.837,240.893,480.977,240.033,479.916,240.033z"/>
			<path style="fill:#FFFFFF;" d="M330.376,259.995c-1.061,0-1.922,0.86-1.922,1.922c0,1.061,0.86,1.922,1.922,1.922
				c1.061,0,1.921-0.86,1.921-1.922C332.297,260.855,331.437,259.995,330.376,259.995z"/>
			<path style="fill:#FFFFFF;" d="M351.739,259.995c-1.061,0-1.922,0.86-1.922,1.922c0,1.061,0.861,1.922,1.922,1.922
				c1.061,0,1.921-0.86,1.921-1.922S352.8,259.995,351.739,259.995z"/>
			<path style="fill:#FFFFFF;" d="M373.102,259.995c-1.061,0-1.922,0.86-1.922,1.922c0,1.061,0.86,1.922,1.922,1.922
				c1.061,0,1.921-0.86,1.921-1.922C375.023,260.855,374.163,259.995,373.102,259.995z"/>
			<path style="fill:#FFFFFF;" d="M394.465,259.995c-1.061,0-1.922,0.86-1.922,1.922c0,1.061,0.86,1.922,1.922,1.922
				c1.061,0,1.921-0.86,1.921-1.922C396.386,260.855,395.526,259.995,394.465,259.995z"/>
			<path style="fill:#FFFFFF;" d="M415.827,259.995c-1.061,0-1.921,0.86-1.921,1.922c0,1.061,0.86,1.922,1.921,1.922
				c1.061,0,1.922-0.86,1.922-1.922C417.749,260.855,416.888,259.995,415.827,259.995z"/>
			<path style="fill:#FFFFFF;" d="M437.19,259.995c-1.061,0-1.921,0.86-1.921,1.921c0,1.061,0.86,1.922,1.921,1.922
				c1.061,0,1.922-0.86,1.922-1.922C439.112,260.855,438.252,259.995,437.19,259.995z"/>
			<path style="fill:#FFFFFF;" d="M458.553,259.995c-1.061,0-1.922,0.86-1.922,1.921c0,1.061,0.861,1.922,1.922,1.922
				c1.061,0,1.922-0.86,1.922-1.922C460.475,260.855,459.614,259.995,458.553,259.995z"/>
			<path style="fill:#FFFFFF;" d="M479.916,259.995c-1.061,0-1.921,0.86-1.921,1.921c0,1.061,0.86,1.922,1.921,1.922
				c1.061,0,1.921-0.86,1.921-1.922C481.837,260.855,480.977,259.995,479.916,259.995z"/>
			<path style="fill:#FFFFFF;" d="M330.376,279.956c-1.061,0-1.922,0.86-1.922,1.921c0,1.061,0.86,1.922,1.922,1.922
				c1.061,0,1.921-0.86,1.921-1.922C332.298,280.816,331.437,279.956,330.376,279.956z"/>
			<path style="fill:#FFFFFF;" d="M351.739,279.956c-1.061,0-1.922,0.86-1.922,1.921c0,1.061,0.861,1.922,1.922,1.922
				c1.061,0,1.921-0.86,1.921-1.922C353.66,280.816,352.8,279.956,351.739,279.956z"/>
			<path style="fill:#FFFFFF;" d="M373.102,279.956c-1.061,0-1.922,0.86-1.922,1.921c0,1.061,0.86,1.922,1.922,1.922
				c1.061,0,1.921-0.86,1.921-1.922C375.023,280.816,374.163,279.956,373.102,279.956z"/>
			<path style="fill:#FFFFFF;" d="M394.465,279.956c-1.061,0-1.922,0.86-1.922,1.922c0,1.061,0.86,1.922,1.922,1.922
				c1.061,0,1.921-0.86,1.921-1.922C396.386,280.816,395.526,279.956,394.465,279.956z"/>
			<path style="fill:#FFFFFF;" d="M415.827,279.956c-1.061,0-1.921,0.86-1.921,1.922c0,1.061,0.86,1.922,1.921,1.922
				c1.061,0,1.922-0.86,1.922-1.922C417.749,280.816,416.889,279.956,415.827,279.956z"/>
			<path style="fill:#FFFFFF;" d="M437.19,279.956c-1.061,0-1.921,0.86-1.921,1.922c0,1.061,0.86,1.922,1.921,1.922
				c1.061,0,1.922-0.86,1.922-1.922C439.112,280.816,438.252,279.956,437.19,279.956z"/>
			<path style="fill:#FFFFFF;" d="M458.553,279.956c-1.061,0-1.922,0.86-1.922,1.922c0,1.061,0.861,1.921,1.922,1.921
				c1.061,0,1.922-0.86,1.922-1.922S459.614,279.956,458.553,279.956z"/>
			<path style="fill:#FFFFFF;" d="M479.916,279.956c-1.061,0-1.921,0.86-1.921,1.922c0,1.061,0.86,1.922,1.921,1.922
				c1.061,0,1.921-0.86,1.921-1.922C481.837,280.816,480.977,279.956,479.916,279.956z"/>
			<path style="fill:#FFFFFF;" d="M330.376,299.918c-1.061,0-1.922,0.86-1.922,1.922c0,1.061,0.86,1.921,1.922,1.921
				c1.061,0,1.921-0.86,1.921-1.921C332.298,300.778,331.438,299.918,330.376,299.918z"/>
			<path style="fill:#FFFFFF;" d="M351.739,299.918c-1.061,0-1.922,0.86-1.922,1.922c0,1.061,0.861,1.921,1.922,1.921
				c1.061,0,1.921-0.86,1.921-1.921C353.661,300.778,352.8,299.918,351.739,299.918z"/>
			<path style="fill:#FFFFFF;" d="M373.102,299.918c-1.061,0-1.922,0.86-1.922,1.922c0,1.061,0.86,1.921,1.922,1.921
				c1.061,0,1.921-0.86,1.921-1.921C375.023,300.778,374.163,299.918,373.102,299.918z"/>
			<path style="fill:#FFFFFF;" d="M394.465,299.918c-1.061,0-1.922,0.86-1.922,1.922c0,1.061,0.86,1.921,1.922,1.921
				c1.061,0,1.921-0.86,1.921-1.921C396.386,300.778,395.526,299.918,394.465,299.918z"/>
			<path style="fill:#FFFFFF;" d="M415.827,299.918c-1.061,0-1.921,0.86-1.921,1.922c0,1.061,0.86,1.921,1.921,1.921
				c1.061,0,1.922-0.86,1.922-1.921C417.749,300.778,416.889,299.918,415.827,299.918z"/>
			<path style="fill:#FFFFFF;" d="M437.19,299.918c-1.061,0-1.921,0.86-1.921,1.922c0,1.061,0.86,1.921,1.921,1.921
				c1.061,0,1.922-0.86,1.922-1.921C439.112,300.778,438.252,299.918,437.19,299.918z"/>
			<path style="fill:#FFFFFF;" d="M458.553,299.918c-1.061,0-1.922,0.86-1.922,1.922c0,1.061,0.861,1.921,1.922,1.921
				c1.061,0,1.922-0.86,1.922-1.921C460.475,300.778,459.614,299.918,458.553,299.918z"/>
			<path style="fill:#FFFFFF;" d="M479.916,299.918c-1.061,0-1.921,0.86-1.921,1.922c0,1.061,0.86,1.921,1.921,1.921
				c1.061,0,1.921-0.86,1.921-1.921C481.837,300.778,480.977,299.918,479.916,299.918z"/>
			<path style="fill:#FFFFFF;" d="M330.376,319.879c-1.061,0-1.922,0.86-1.922,1.922c0,1.061,0.86,1.922,1.922,1.922
				s1.921-0.86,1.921-1.922C332.298,320.74,331.438,319.879,330.376,319.879z"/>
			<path style="fill:#FFFFFF;" d="M351.739,319.879c-1.061,0-1.922,0.86-1.922,1.922c0,1.061,0.861,1.922,1.922,1.922
				c1.061,0,1.921-0.86,1.921-1.922C353.661,320.74,352.801,319.879,351.739,319.879z"/>
			<path style="fill:#FFFFFF;" d="M373.102,319.879c-1.062,0-1.922,0.861-1.922,1.922c0,1.061,0.86,1.922,1.922,1.922
				c1.061,0,1.921-0.86,1.921-1.922C375.023,320.74,374.163,319.879,373.102,319.879z"/>
			<path style="fill:#FFFFFF;" d="M394.465,319.879c-1.061,0-1.922,0.86-1.922,1.922s0.86,1.922,1.922,1.922
				c1.061,0,1.921-0.86,1.921-1.922S395.526,319.879,394.465,319.879z"/>
			<path style="fill:#FFFFFF;" d="M415.828,319.879c-1.061,0-1.921,0.86-1.921,1.922s0.86,1.922,1.921,1.922
				c1.061,0,1.922-0.86,1.922-1.922S416.889,319.879,415.828,319.879z"/>
			<path style="fill:#FFFFFF;" d="M437.19,319.879c-1.061,0-1.921,0.861-1.921,1.922c0,1.061,0.86,1.921,1.921,1.921
				c1.061,0,1.922-0.86,1.922-1.921C439.112,320.739,438.252,319.879,437.19,319.879z"/>
			<path style="fill:#FFFFFF;" d="M458.553,319.879c-1.061,0-1.922,0.86-1.922,1.922c0,1.061,0.861,1.921,1.922,1.921
				c1.061,0,1.922-0.86,1.922-1.921C460.475,320.739,459.615,319.879,458.553,319.879z"/>
			<path style="fill:#FFFFFF;" d="M479.916,319.879c-1.061,0-1.921,0.86-1.921,1.922c0,1.061,0.86,1.921,1.921,1.921
				s1.921-0.86,1.921-1.921C481.837,320.739,480.977,319.879,479.916,319.879z"/>
		</g>
		<g style="opacity:0.5;">
			<path style="fill:#FFFFFF;" d="M718.783,467.098c0.456,0.456,0.456,1.194,0,1.65l-7.975,7.977c-0.456,0.456-0.455,1.194,0,1.65
				c0.456,0.456,1.194,0.456,1.65,0l9.587-9.59c0.476-0.476,0.476-1.248,0-1.725l-9.951-9.95c-0.456-0.456-1.194-0.456-1.65,0
				c-0.456,0.456-0.455,1.194,0,1.65L718.783,467.098z"/>
			<path style="fill:#FFFFFF;" d="M706.78,467.098c0.456,0.456,0.456,1.194,0,1.65l-7.975,7.977c-0.456,0.456-0.455,1.194,0,1.65
				c0.456,0.456,1.194,0.456,1.65,0l9.587-9.59c0.476-0.476,0.476-1.248,0-1.725l-9.951-9.95c-0.456-0.456-1.194-0.456-1.65,0l0,0
				c-0.456,0.456-0.455,1.194,0,1.65L706.78,467.098z"/>
			<path style="fill:#FFFFFF;" d="M694.777,467.098c0.456,0.456,0.456,1.194,0,1.65l-7.975,7.977c-0.456,0.456-0.455,1.194,0,1.65
				c0.456,0.456,1.194,0.456,1.65,0l9.587-9.59c0.476-0.476,0.476-1.248,0-1.725l-9.951-9.95c-0.456-0.456-1.194-0.456-1.65,0
				c-0.456,0.456-0.455,1.194,0,1.65L694.777,467.098z"/>
			<path style="fill:#FFFFFF;" d="M674.436,458.762l8.338,8.337c0.456,0.456,0.456,1.194,0,1.65l-7.975,7.977
				c-0.456,0.456-0.455,1.194,0,1.65c0.456,0.456,1.194,0.456,1.65,0l9.587-9.59c0.476-0.476,0.476-1.248,0-1.725l-9.951-9.95
				c-0.456-0.456-1.194-0.456-1.65,0C673.98,457.567,673.98,458.306,674.436,458.762z"/>
		</g>
		<g style="opacity:0.5;">
			<path style="fill:#FFFFFF;" d="M112.057,142.08c0.456,0.456,0.456,1.194,0,1.65l-7.975,7.977c-0.455,0.456-0.455,1.194,0,1.65
				c0.456,0.456,1.194,0.456,1.65,0l9.587-9.589c0.476-0.476,0.476-1.248,0-1.725l-9.951-9.95c-0.456-0.456-1.194-0.456-1.65,0
				c-0.455,0.456-0.455,1.194,0,1.65L112.057,142.08z"/>
			<path style="fill:#FFFFFF;" d="M100.054,142.08c0.456,0.456,0.456,1.194,0,1.65l-7.975,7.977c-0.456,0.456-0.455,1.194,0,1.65
				c0.456,0.456,1.194,0.456,1.65,0l9.587-9.589c0.476-0.476,0.476-1.248,0-1.725l-9.951-9.95c-0.456-0.456-1.194-0.456-1.65,0l0,0
				c-0.456,0.456-0.455,1.194,0,1.65L100.054,142.08z"/>
			<path style="fill:#FFFFFF;" d="M88.051,142.08c0.456,0.456,0.456,1.194,0,1.65l-7.975,7.977c-0.456,0.456-0.455,1.194,0,1.65
				c0.456,0.456,1.194,0.456,1.65,0l9.587-9.59c0.476-0.476,0.476-1.248,0-1.724l-9.951-9.95c-0.456-0.456-1.194-0.456-1.65,0
				c-0.456,0.456-0.455,1.194,0,1.65L88.051,142.08z"/>
			<path style="fill:#FFFFFF;" d="M67.711,133.743l8.338,8.337c0.456,0.456,0.456,1.194,0,1.65l-7.975,7.977
				c-0.456,0.456-0.455,1.194,0,1.65c0.456,0.456,1.194,0.456,1.65,0l9.587-9.59c0.476-0.476,0.476-1.248,0-1.724l-9.951-9.95
				c-0.456-0.456-1.194-0.456-1.65,0C67.255,132.549,67.255,133.288,67.711,133.743z"/>
		</g>
		<g style="opacity:0.5;">
			<path style="fill:#FFFFFF;" d="M652.901,194.554c1.035,1.035,1.035,2.713,0.001,3.748l-18.113,18.118
				c-1.035,1.035-1.034,2.713,0.001,3.747c1.035,1.035,2.713,1.035,3.747,0l21.775-21.781c1.082-1.082,1.081-2.835-0.001-3.917
				l-22.601-22.599c-1.035-1.035-2.713-1.035-3.747,0c-1.035,1.035-1.034,2.713,0.001,3.748L652.901,194.554z"/>
			<path style="fill:#FFFFFF;" d="M625.638,194.554c1.035,1.035,1.035,2.713,0.001,3.748l-18.113,18.118
				c-1.035,1.035-1.034,2.713,0.001,3.748c1.035,1.035,2.713,1.035,3.747,0l21.775-21.781c1.081-1.082,1.081-2.836-0.001-3.917
				l-22.601-22.599c-1.035-1.035-2.713-1.035-3.748,0l0,0c-1.035,1.035-1.034,2.713,0.001,3.748L625.638,194.554z"/>
			<path style="fill:#FFFFFF;" d="M598.375,194.554c1.035,1.035,1.035,2.713,0.001,3.748l-18.113,18.118
				c-1.035,1.035-1.034,2.713,0.001,3.748c1.035,1.035,2.713,1.035,3.747,0l21.775-21.781c1.081-1.082,1.081-2.835-0.001-3.917
				l-22.601-22.599c-1.035-1.035-2.713-1.035-3.747,0c-1.035,1.035-1.034,2.713,0,3.748L598.375,194.554z"/>
			<path style="fill:#FFFFFF;" d="M552.175,175.618l18.938,18.936c1.035,1.035,1.035,2.713,0.001,3.747L553,216.42
				c-1.035,1.035-1.034,2.713,0.001,3.748c1.035,1.035,2.713,1.035,3.747,0l21.775-21.781c1.081-1.082,1.081-2.835-0.001-3.917
				l-22.601-22.599c-1.035-1.035-2.713-1.035-3.747,0C551.139,172.905,551.139,174.583,552.175,175.618z"/>
		</g>
		<g style="opacity:0.5;">
			<path style="fill:#FFFFFF;" d="M243.78,374.269c1.035,1.035,1.035,2.713,0.001,3.748l-18.113,18.118
				c-1.035,1.035-1.034,2.713,0.001,3.747c1.035,1.035,2.713,1.035,3.747,0l21.775-21.781c1.081-1.082,1.081-2.835-0.001-3.917
				l-22.601-22.599c-1.035-1.035-2.713-1.035-3.748,0c-1.035,1.035-1.034,2.713,0.001,3.748L243.78,374.269z"/>
			<path style="fill:#FFFFFF;" d="M216.518,374.269c1.035,1.035,1.035,2.713,0.001,3.748l-18.113,18.118
				c-1.035,1.035-1.034,2.713,0.001,3.748c1.035,1.035,2.713,1.035,3.747,0l21.775-21.781c1.081-1.082,1.081-2.835-0.001-3.917
				l-22.601-22.599c-1.035-1.035-2.713-1.035-3.747,0l0,0c-1.035,1.035-1.034,2.713,0.001,3.748L216.518,374.269z"/>
			<path style="fill:#FFFFFF;" d="M189.255,374.269c1.035,1.035,1.035,2.713,0.001,3.748l-18.113,18.118
				c-1.035,1.035-1.034,2.713,0.001,3.748c1.035,1.035,2.713,1.035,3.747,0l21.775-21.781c1.081-1.082,1.081-2.836-0.001-3.917
				l-22.601-22.599c-1.035-1.035-2.713-1.035-3.747,0c-1.035,1.035-1.034,2.713,0,3.748L189.255,374.269z"/>
			<path style="fill:#FFFFFF;" d="M143.054,355.333l18.938,18.936c1.035,1.035,1.035,2.713,0.001,3.747l-18.113,18.118
				c-1.035,1.035-1.034,2.713,0.001,3.748c1.035,1.035,2.713,1.035,3.747,0l21.775-21.781c1.082-1.082,1.081-2.835-0.001-3.917
				l-22.601-22.599c-1.035-1.035-2.713-1.035-3.747,0C142.019,352.62,142.019,354.298,143.054,355.333z"/>
		</g>
		<g style="opacity:0.4;">
			<path style="fill:#FFFFFF;" d="M161.401,275.824l-8.631,8.632v-17.263L161.401,275.824z"/>
			<path style="fill:#FFFFFF;" d="M442.995,63.742l-8.631,8.631V55.111L442.995,63.742z"/>
			<path style="fill:#FFFFFF;" d="M88.261,69.781l-8.631,8.631V61.15L88.261,69.781z"/>
			<path style="fill:#FFFFFF;" d="M132.428,51.741l-8.632,8.631V43.11L132.428,51.741z"/>
			<path style="fill:#FFFFFF;" d="M639.299,364.6l-8.631,8.631v-17.263L639.299,364.6z"/>
			<path style="fill:#FFFFFF;" d="M569.092,253.182l-8.631,8.632v-17.263L569.092,253.182z"/>
			<path style="fill:#FFFFFF;" d="M720.569,415.597l-8.631,8.631v-17.263L720.569,415.597z"/>
			<path style="fill:#FFFFFF;" d="M46.592,325.74l-8.631,8.632v-17.263L46.592,325.74z"/>
			<path style="fill:#FFFFFF;" d="M420.143,111.626l-8.632,8.631v-17.263L420.143,111.626z"/>
			<path style="fill:#FFFFFF;" d="M668.801,153.447l-5.72,5.72v-11.44L668.801,153.447z"/>
			<path style="fill:#FFFFFF;" d="M296.768,452.888l-5.72,5.72v-11.44L296.768,452.888z"/>
			<path style="fill:#FFFFFF;" d="M296.768,421.317l-5.72,5.72v-11.44L296.768,421.317z"/>
			<path style="fill:#FFFFFF;" d="M564.776,355.156l-5.72,5.72v-11.44L564.776,355.156z"/>
			<path style="fill:#FFFFFF;" d="M567.636,476.796l-5.72,5.72v-11.44L567.636,476.796z"/>
			<path style="fill:#FFFFFF;" d="M428.452,251.902l-4.44,4.44v-8.88L428.452,251.902z"/>
			<path style="fill:#FFFFFF;" d="M47.996,452.888l-5.72,5.72v-11.44L47.996,452.888z"/>
			<path style="fill:#FFFFFF;" d="M247.929,24.073l-4.794,4.794v-9.587L247.929,24.073z"/>
		</g>
	</g>
</g>
</svg>
